<svg id="Layer_1" data-name="Layer 1" xmlns="http://www.w3.org/2000/svg" viewBox="0 0 514.47 522.98">
    <defs>
        <style>
            .cls-1{
                fill: transparent;
                stroke: rgba(255,255,255, .2);
                stroke-dasharray: 3000;
                stroke-dashoffset: 3000;
                animation: dash 30s linear alternate infinite;
            }
            @keyframes dash {
                from {
                    stroke-dashoffset: 3000;
                }
                to {
                    stroke-dashoffset: 0;
                }
            }
        </style>
    </defs>
    <title>
        Uzbekistan_gerb [преобразованный]
    </title>
    <path class="cls-1" d="M602.3,297.83q.18-7.42.37-14.84c9.65-5.38,18.86-11.32,28.88-15.89,15.46-7,31.35-9.34,45.57-18.67,4.33-2.91,5.07-8,6.06-15.46,4.08,7.91,7.54,15.52,3.28,23.56-3,5.75-10.76,8.9-16.7,11.62-10.94,5-22.69,7.91-34.13,12.18A152.35,152.35,0,0,0,602.3,297.83Z" transform="translate(-178.17 -36.9)"/>
    <path class="cls-1" d="M600.26,334c.12-4.95,1.48-10.51,1.61-15.46,10.26-5.38,16.94-9.65,27.89-13.6,14.59-5.32,35.18-8.84,49.4-18.3,4.33-2.91,6.86-4.76,8.72-10,2.23,6.31,3.65,10.2.62,18.06-2.35,6.06-10.76,8.9-16.69,11.62-11,5-27,7.3-38,12.18C620.73,324.29,609.54,327.69,600.26,334Z" transform="translate(-178.17 -36.9)"/>
    <path class="cls-1" d="M273.54,286.93a78.18,78.18,0,0,1,1.36-14.15c-9.58-5.32-20.78-11.9-30.79-16.47-15.46-7.11-31.29-9.34-45.51-18.67-4.33-2.91-5.07-8-6.12-15.46-4,7.91-7.48,15.52-3.22,23.56,3,5.75,10.76,8.9,16.63,11.56,11,5.07,22.69,8,34.19,12.24A156.11,156.11,0,0,1,273.54,286.93Z" transform="translate(-178.17 -36.9)"/>
    <path class="cls-1" d="M275.46,323.22c-.19-4.95-1.48-10.51-1.67-15.46-10.2-5.38-16.88-9.65-27.82-13.66-14.65-5.26-35.18-8.78-49.4-18.24-4.33-2.91-6.93-4.76-8.72-10-2.23,6.25-3.65,10.2-.62,18.06,2.35,6.06,10.76,8.9,16.63,11.56,11,5.07,27,7.36,38,12.24C254.94,313.51,266.19,316.91,275.46,323.22Z" transform="translate(-178.17 -36.9)"/>
    <path class="cls-1" d="M313.61,403.91c-3.71-4.33-11-10.67-14.68-15.06-14.22-4.58-20.14-5.47-33.31-7.82-20.34-3.71-37.9-2.41-58.62-8.29-4.27-1.24-8.1-6.25-14.47-12.74,1.73,7.79,3.77,16.88,11.75,23.62,6.18,5.32,13.42,4.89,21.52,6,14.22,2,28,2.6,42.35,4.45A292.14,292.14,0,0,1,313.61,403.91Z" transform="translate(-178.17 -36.9)"/>
    <path class="cls-1" d="M343,435.81c-3.65-4.39-9-9.09-12.68-13.48-14-3-23.62-5.69-37.22-7.36-18.24-2.23-44.83,1-65.67-5.19-5.19-1.55-10.51-4.51-16.08-8.84,2.35,6,3.52,11.5,12.12,17.93,6.68,5,21.15,7.3,28.88,8.66,14.47,2.6,32.15,1.05,46.81,2C315.46,430.62,329.38,431.79,343,435.81Z" transform="translate(-178.17 -36.9)"/>
    <path class="cls-1" d="M561.93,409.41c4.14-4.27,11.84-10.21,15.92-14.48,14.65-4.21,20.87-5.06,34.22-7.1,20.65-3.09,38.09-1.36,59.36-6.68,4.39-1.11,8.66-6,15.64-12.3-2.41,7.73-5.38,16.76-13.91,23.25-6.74,5.13-13.91,4.51-22.07,5.44-14.41,1.54-28.32,1.85-42.79,3.28A306.91,306.91,0,0,0,561.93,409.41Z" transform="translate(-178.17 -36.9)"/>
    <path class="cls-1" d="M531,440.51c4.08-4.27,9.83-8.84,14-13.11,14.22-2.66,24.11-5.07,37.9-6.37,18.43-1.73,44.71,2.23,66.1-3.46,5.32-1.36,10.88-4.21,16.88-8.35-2.91,5.87-4.58,11.38-13.85,17.62-7.11,4.76-21.76,6.62-29.62,7.85-14.72,2.16-32.21.12-47,.74C559,436.06,544.93,436.86,531,440.51Z" transform="translate(-178.17 -36.9)"/>
    <path class="cls-1" d="M361.1,478.5c23.19-6.8,48.35-9.09,72.84-9.09,23.62,0,50.89,4.76,71.54,9.09l-2.54,14.65c-21.7-4.27-45.94-8.1-69.13-8.1s-48,1.79-70.18,8.1Z" transform="translate(-178.17 -36.9)"/>
    <path class="cls-1" d="M367.17,523.33c21.15-6.8,44.39-9.16,66.71-9.16,21.58,0,46.44,4.76,65.23,9.09L496.82,541c-19.79-4.27-41.92-8.1-63.07-8.1s-43.78,1.79-64,8.1Z" transform="translate(-178.17 -36.9)"/>
    <path class="cls-1" d="M440,36.9l11.69,11.56,16.51.12L468.25,65l11.62,11.75L468.25,88.46l-.06,16.45-16.51.12L440,116.6v-2.41l11-10.88,15.46-.06.06-15.46,10.94-11-10.94-11-.06-15.52L451,50.19,440,39.31Zm0,79.7L428.37,105l-16.51-.12-.06-16.45L400.18,76.78,411.8,65l.06-16.45,16.51-.12L440,36.9v2.41L429.05,50.19l-15.52.06-.06,15.52-10.88,11,10.88,11,.06,15.46,15.52.06L440,114.19Z" transform="translate(-178.17 -36.9)"/>
    <polygon class="cls-1" points="273.63 34.26 276.17 40.01 282.35 40.62 277.65 44.7 279.07 50.83 273.63 47.67 268.25 50.83 269.68 44.7 264.98 40.62 271.16 40.01 273.63 34.26"/>
    <path class="cls-1" d="M440.18,57.36a22.26,22.26,0,0,1,19,10.7,16.17,16.17,0,1,0,0,23.06,22.23,22.23,0,1,1-19-33.76Z" transform="translate(-178.17 -36.9)"/>
    <path class="cls-1" d="M423.67,287.5,395,276.74,360.6,289.91l-11.81-2-13.48,5.75,1.67,5,12.86-4,66.72,13.48L362,293.93l32.34-10.14,28,8.1S423.67,286.88,423.67,287.5Z" transform="translate(-178.17 -36.9)"/>
    <path class="cls-1" d="M434.12,288.55l42.6-11.81L513,289.91l12.43-2,14.16,5.75-1.73,5-13.54-4L437.15,308.4l74.38-14.47L477.4,283.79l-41.86,9.15S433.44,288.74,434.12,288.55Z" transform="translate(-178.17 -36.9)"/>
    <path class="cls-1" d="M314.58,93.53c5.31-7.48,9.89-11.56,15.82-15.21a10.63,10.63,0,0,0-.4-2.85c-6.35,1.79-14,8.79-16.36,14.66A19.09,19.09,0,0,0,314.58,93.53ZM688,306.24a15.26,15.26,0,0,1,.43-5.13c5-9.09,4.45-18.74,1.42-24.79.14-2.32.2-4.87.13-7.5a17.51,17.51,0,0,1-4.85,8.67c-4.51,4.64-6.86,6.25-12.8,9-11,5-24.3,7.11-35.37,11.13-13.42,4.95-23.25,9.58-32.52,15.89.12-4.95-.31-5.63-.19-10.57,9.4-6,19.35-11.75,30.05-15.46,14.53-5,30.11-8.35,45-16.88,4.51-2.6,8.35-3.9,10.14-9.15v0c-.11-.78-.22-1.56-.36-2.33,2.54-6.62,3-16-6.49-29.25-3.09-9.77-5.32-14.41-7.48-22.2-2.72-9.77-6.74-21.89-10.82-29.49-9.46-17.5-21-31.1-35.24-49.71-1.86,1.55-1.79,2-2.84,3.28-7.79-11.38-17.68-23.62-29.8-34.07-.49,2.6-.68,3.65-1.24,4.33C582,90.69,574,84.51,565.88,79c-.49,3.09-1.36,2.78-1.85,5.94-4.27-3.46-28.44-11.32-37.66-12.49.56,3.65,1.36,4.51,1.85,8.1-15.52,1.05-30.17.56-48.17,3.15,6.74,17.19,17.81,34.07,26.09,49.09-20.53-4.58-48.48-11.44-69.68-11.38s-36.42,4.95-56,10.64c1.79-4-1.55-5.57-4.88-6.37,3-3.28,3.52-5.13,4.39-9.34,4.51-4,5.32-10.51,6-12,6.25-3.65,11.81-13.48,13.73-19.35-8.66-3.09-23.37-1.92-27.21,2.72a17.74,17.74,0,0,0,.62-7.85c-2.66-.56-7.85.37-11.93,2.1A7.8,7.8,0,0,0,360,75.54a30.1,30.1,0,0,0-7.11,3.83c0,.11,0,.21,0,.31-6.74,5.38-16.51,9.89-19.17,20q-10.48-6.49-17.07,2.78-13.63-4.45-17,13.23c-2.47-10.76,1.85-21.27,13-28.88a20.68,20.68,0,0,1,.83,3.23,31.11,31.11,0,0,0-.31-7c-5.75,2.41-11.87,7.85-15.46,13.23s-4.2,13.6-4.2,16.51c-.19-3.9.37-6.8-1.11-12.3-10.86-.36-22.78,9.45-26.44,19.69a39.93,39.93,0,0,1,1.62,4,34.67,34.67,0,0,1,24.86-20.65,69.79,69.79,0,0,1-.62,18.3c.93-3,2-5.81,4.45-7.3a24.15,24.15,0,0,1,2.1,10.2l1.73.37c-1.42,4.2-2.91,8.35-4.39,12.55a5.36,5.36,0,0,1,5,.93,51.67,51.67,0,0,0-14.1,20.59c-2.72-2.84-6.49-5.5-9.77-6.31,2.47-4.39,6.25-6.92,9.77-9.27-4.33.8-7.85,4.45-11.13,8.84-.87-.56-1.61-1.42-3.09-.87-.49-4.33-1.05-8.66-1.55-13-.06,4.45.06,8.53,0,13-1.79-.68-3.77.31-5.56,2.23-.19-3.83-.37-7.67-.62-11.56-.25,4.14-.49,8.22-.74,12.37-.87.49-1.67,1-2.53,1.55a38,38,0,0,0-12.12-13.91c-.19-.93-1.11-2.1-1.36-3a20.43,20.43,0,0,1,5.81-.25c1-7.61,5.13-14.53,10.76-21.15a13.34,13.34,0,0,1,1.05,1.6c-.37-2.55-.73-4.56-2.58-5.93-4.95,4.76-12.06,14-14.22,23.74a30.07,30.07,0,0,0-5,.18c-.06,2.29.06,4,1.48,5.5-3.71,2.29-6.37,8.78-6.18,12.43-2.35-1.17-8.66-1.05-10.51-.8-1.24,2.6-1.67,8.22-1.17,13-6.18,1.48-11.25,11.44-13.42,18.43-2-.43-3.28-1.11-6.24-1.05-1.05,4.7-1,10-.31,18.18A6.34,6.34,0,0,0,202,203c-.74,5.69,2,8.84,1.67,13.36-7.42-2-15.27-.06-17.19,9.21a19.9,19.9,0,0,0-3.28,21.15C180.36,252.44,180,261.1,181,267c-5.63,9.15-3,23.43,9.89,29.74a14.57,14.57,0,0,0,1.79,8.53c-1.05.62-1.79.49-3.21,1.17-1.24,7.67-.62,16.08,4.64,24.18a18.59,18.59,0,0,0-10.08.56c.12,3.34,1.73,9.83,4.95,11.25a68.07,68.07,0,0,0,3.71,10.33c-2.72.93-5.69,2.41-7.11,4.82a37.57,37.57,0,0,0,7.54,21.21c.25,10.39,2.16,14.84,9.4,21.77,4.2,14.41,10.94,22.2,27.33,29.62.37,3.9,5.13,12.18,9.21,15.15.8.31-2.47,1.05-6,1.92a23.44,23.44,0,0,0,12.37,11.81c-3.59.19-5,1.05-6.62,3.53,3.52,4.51,14.28,6,17.68,6.55-.37,1.92-1.55,3.77-4.08,5.94a51,51,0,0,0,21.89,12.49c-3.34.74-5.26,1.18-7.79,3.22,3.83,5.13,18.12,10.88,19,11.5a14.3,14.3,0,0,0-2.84,3.34c7.11,6,31.45,13.53,34.95,12.62-3.13,2.34-5.6,4.41-7.37,7.6,6.49,4.51,17.81,5.87,28.69,5.07-2.1,3.15-3.15,5.32-3,9.46a36.33,36.33,0,0,0,19.23-4c-.56,3,.49,3.9.62,5.75a28.3,28.3,0,0,0,8-4.89c1.3,3.65,2,5.69,1.85,9.71a200.79,200.79,0,0,0,51.82,12.86l3-.06a13.13,13.13,0,0,1-.12-1.67,15,15,0,0,1,30.05,0,11,11,0,0,1-.06,1.42c14-1.73,42-7,52.19-12.67,0-3.22-.06-4.82-.12-6.92,19.79,6.37,40.44-5.81,50-13.23a38.83,38.83,0,0,0-7.11-2.23c9.65-1.36,38.71-16.51,43.22-19.73-1.55-1.36-4.58-1.55-6.8-1.86,7.54-2.78,29.68-19.48,33.27-22.63a8.26,8.26,0,0,0-5.44-.68c11.75-9.4,20.84-15.64,29.93-28.94-2,.13-3.77-1.3-5.19-1.24,7.42-3.53,14.1-13.79,15.64-17.13,9.4-7.48,11.38-12.43,15.21-20.84a47.21,47.21,0,0,0,8.52-13.63c-3.56,5.18-11,9.63-17.54,12.18-8.16,3.22-11.69,3.28-19.11,3.53-14.84.43-29.25.8-43.16,2.16a280.51,280.51,0,0,0-39.16,6.09q4.23-4.41,8.15-9.13a269,269,0,0,1,36.83-5.75c18.06-1.48,36.42-1.3,57.88-4.88,6.19-1.08,10.93-1.76,16.7-5.67.39-1,.78-2.12,1.17-3.27,5.19-7.85,6.93-14.53,7.79-24.86,1.42-6.06,8.29-45,9.46-63.07C690.17,306.17,688.75,306.42,688,306.24ZM668.8,314c5.38-2.47,9.77-5.57,16.88-9.58-1.42,6.62-3.59,13-7.42,17.25C672.26,328.27,664.53,323.57,668.8,314ZM623.47,334.2a39.94,39.94,0,0,1,5.07-8.16c3.89-1.36,8.53-2.54,11.81-1.42-1.42,6.62-3.59,12.92-7.42,17.13C626.94,348.36,619.21,343.66,623.47,334.2ZM642.35,341c-4.45,9.27-10.2,20.71-18.43,25.29-7.73,4.39-13.6-2.54-6.49-10.2C623.74,349.21,632.64,345.5,642.35,341Zm-37.1-68.14c-1.17-4.82-.12-6.37-1.36-16.39,6.86,4.95,8.84,7.79,12.24,13C613,273.28,610.07,274.58,605.25,272.85ZM604.57,250c-6.74-7.48-9.77-17.37-13.6-28.26,9.46,5.75,21.08,13,25.17,22.32C620,252.75,612.05,258.32,604.57,250ZM519.26,486.23c-9-.76-10-9.9.31-12.37,9.27-2.21,18.93-.25,29.71,1.45C540.2,480.61,528.84,487,519.26,486.23Zm24.29-1c-3.77,9.64-8.59,21.46-16.45,26.65-7.36,4.95-13.73-1.48-7.23-9.71C525.61,494.76,534.21,490.43,543.54,485.18Zm-57.05-10.7a19.53,19.53,0,0,1-1.11-2.72c-.56-1.67-3.59-3.09-5.38-3.09-2.23,0-4.45,1.17-6.49,3-.62-.18-1.36.37-1.3,1.73-1.92-2.91,1.92-5.19,2.78-6.12a64.86,64.86,0,0,1-6.68-5.19c-4.33-3.83-6-7.79-9.21-12.61.68-3,1.36-6,2-9,2.84,9.15,6.31,17.44,11.44,22.14a54.85,54.85,0,0,0,4.27,3.46,16.92,16.92,0,0,1,5.13-.43c2.78.19,4.7,3,5.63,5.94.5,1.55.62,3.83-.43,4.27C487.48,475,487.23,474.42,486.49,474.48Zm-38-19.11c-.56,0-1.11-2-1.17-4.58s.37-4.64,1-4.7,1.11,2,1.17,4.51S449.08,455.31,448.47,455.38Zm1,8c0,2.29-.19,4.2-.5,4.27s-.56-1.79-.62-4.08.19-4.2.5-4.27S449.39,461.13,449.46,463.41Zm-7.79-11.5c-.12-2.54.62-4.7,1.67-4.7s1.92,2,2,4.51-.62,4.64-1.61,4.7S441.79,454.45,441.66,451.91ZM442.72,469c-.31,0-.62-1.79-.62-4.08s.19-4.2.5-4.2.56,1.73.56,4S443,468.92,442.72,469Zm-6.86-15.27c-.06-2.78.68-5.19,1.67-5.19s1.85,2.16,2,5-.62,5.19-1.61,5.26S436,456.55,435.85,453.71Zm1.55,11.87c0,2.29-.19,4.2-.5,4.27s-.56-1.79-.62-4.08.19-4.21.49-4.21S437.34,463.29,437.4,465.58Zm-7-6.18c-1.48.06-2.91-2.35-3-5.44s.93-5.57,2.47-5.63,2.91,2.41,3,5.44S431.89,459.33,430.35,459.39Zm-.19,10.45c-.31,0-.56-1.79-.56-4.08s.19-4.21.43-4.21.62,1.73.62,4S430.47,469.78,430.16,469.84ZM423.61,457c-1.05.06-1.92-2.23-2-5.07s.62-5.2,1.67-5.2,1.92,2.16,2,5S424.6,457,423.61,457Zm1.24,7.23c0,2.29-.19,4.21-.49,4.27s-.56-1.79-.62-4.08.19-4.21.5-4.21S424.78,462,424.85,464.28Zm-3.65-5.13c.31-.06.56,1.79.56,4.08s-.19,4.14-.43,4.21-.62-1.79-.62-4.08S420.89,459.21,421.2,459.15ZM420,438.43c-.12-3.28.87-6.06,2.16-6.06s2.47,2.54,2.66,5.81-.87,6.06-2.16,6.12S420.21,441.71,420,438.43Zm2.72-10.2c-1.79.06-3.46-2.91-3.65-6.62s1.11-6.74,3-6.8,3.52,2.84,3.71,6.55S424.6,428.17,422.74,428.23Zm-15.58-4.58c-1.24.06-2.35-2.84-2.47-6.55s.74-6.8,2-6.86,2.35,2.91,2.47,6.62S408.46,423.59,407.16,423.66Zm.25,36.67c-.25,0-.56-1.79-.56-4.08s.19-4.21.49-4.27.56,1.79.56,4.08S407.72,460.26,407.41,460.32Zm-14.84,13.11c.12-1.36-.68-1.92-1.3-1.73a9.76,9.76,0,0,0-6.49-3c-1.79,0-4.82,1.42-5.38,3.09a19.56,19.56,0,0,1-1.11,2.72c-.68-.06-1,.49-.62,1.42-1.05-.43-1-2.72-.49-4.27,1-2.91,2.84-5.75,5.63-5.94a16.45,16.45,0,0,1,5.13.43,51.67,51.67,0,0,0,4.33-3.46c5.07-4.7,8.53-13,11.44-22.14.62,3,1.3,6,2,9-3.15,4.82-4.82,8.78-9.15,12.61a64.86,64.86,0,0,1-6.68,5.19C390.71,468.24,394.49,470.52,392.57,473.43Zm-35.45,1.17c-.06,2-.19,4-.25,6.06a18,18,0,0,0-18.24-.31,25.13,25.13,0,0,0,8,12.67,16.21,16.21,0,0,0-4.45,12.43,18,18,0,0,0,6.62,2.47c-2.72,1.11-5.26,4.14-8.22,3.34s-3.34-5.13-6.37-7.48-9.46-1.61-11.56-6.31,1-12.61.8-17.68-5.13-6.37-1.92-12.37,11.38-3.83,13.79-4.7,3.77-4.08,7.17-4.39,4.2,2.23,6.31,3.28c3.71-.25,7.54-3.15,11.07-.8s5.75,7.6,6.62,12.67Zm3.59,26.46c-4.33,3.65-9.71,4.76-16.26,3.28-.68-4,2.6-7.91,6.37-11.87A17.3,17.3,0,0,1,342,481.22c3.65-2.1,8.35-1.24,13.48,1.11C357.24,488.58,359,494.82,360.71,501.07Zm-42.17-19-2.23,8.53a57.64,57.64,0,0,1-19.54-8c1.36-1.36,4.2-2.78,8.53-4.14-6.25-5-11.75-10.39-12.12-17.62,1.48-1.92,4.39-2.41,8.84-1.36a46.66,46.66,0,0,1-2.23-14.65c6.74-1,12.68.93,17.93,5.81a13.93,13.93,0,0,1,4.39-6.06c2.6,1.48,4.88,3,6.06,5.26a50.39,50.39,0,0,1,8-3.59c3.77,3.22,3.15,8-1.92,12.68-4.88-.31-11.38-.62-14.59,4.14S316.68,476.28,318.54,482ZM257.07,454c.19-4,4.95-7.11,10.76-7.48.8-5.13,4.33-9.15,11.56-9.89,5.69-.56,12.06.19,16.57,4.14,1.85,1.61,1.24,4.95,1.05,7.42-3.09-2.41-6.37-4.51-11-4.7-1.36,3.77-.8,6.92,0,10-5.87.37-11.38,1.05-14.34,4.39a42.88,42.88,0,0,0,12.18,10.45c-1.48,4.08-1.48,7.73,0,11.07,1.79.37,3.65.68,5.5,1.05-3.15.56-6,2.78-9.4,1.67s-6.62-4.58-9.09-7.73c-2.91-.74-6.62-1.73-8-3.83s1.11-4,1.67-6.06C259.55,463.11,256.89,458,257.07,454Zm28.69,24.79c-1.24-3.52-.93-7.36.8-11.62A28.23,28.23,0,0,1,274.76,458c3-1.61,7.11-2.47,13.73-1.92a15.38,15.38,0,0,1-.56-11.31c3.52.18,6.62,2.6,9.4,7.17l.56,4.45c-2.78,0-5.5.25-8.29,2.47-.25,3.65,1.3,7.36,4.7,11C293.31,473.93,290.46,476.89,285.76,478.75ZM349.39,458c-2.1-2.66-4.76-2.84-7.17-3a18.41,18.41,0,0,0-3.83-9.89c-4.33-.68-8.29-.93-9.65,1.36-.93-1.54-2.23-3-6.06-3.83-3-.12-4.76.93-5.5,3a24.42,24.42,0,0,0-8.53-4.14c-3.59-.93-6.06-1.11-8-.56-1.61-1.67-3.28-3.28-4.95-4.95a220.78,220.78,0,0,1,44.4,6.31,138.59,138.59,0,0,0,13.52,7.45q5.84,3.52,12,6.54c.59,1.31,1.2,2.61,1.77,3.94C361,456.49,355,455.19,349.39,458Zm-99.92-98.56c6.24,4.27,8.47,7.67,8.47,12.61,1.73-3.09,4.33-3.59,10-3.34.62,4.39-1.79,6.62-5.63,9.77-8.84-.25-12.49-.25-21.33-.56-2.72-1.24-5-2.6-6.37-4.58,2.72-3.46,10.14-2.6,15.15,1.55C247.55,369.31,246.87,365.78,249.47,359.47Zm20.84,6.43c-4.95-.74-8.59-.19-10.82,1.79-2.23-5.13-5.56-9.27-11.25-11-3.46,4.51-3.65,9-2.35,13.6-5.69-2.1-10.7-2.29-14.34,1.79a7.82,7.82,0,0,0,3.83,5.38l-6.18-.74c-1.24-1.55-3.4-2.6-3.83-4.64a7.85,7.85,0,0,1,.49-5.69c-2-2.47-4.64-6.86-3.83-10.26.74-2.84,3.71-5.26,7.17-5.63-.37-5.13,1.85-10.64,6.93-12.31s15.09-4,17.25,5.38c3.65.31,8.29-1.24,11,1s3.21,6.8,2.1,9.77c5.81,2.1,10.39,8.59,10.51,13.91s-6.68,6.8-10,10.26A14,14,0,0,0,270.31,365.9Zm-23.77-46.06a12.5,12.5,0,0,0-4.58-2.29c-2,.71-3.2,1.68-3.56,2.95-2.95-.92-5.29-.71-7.12.61-1.83-4.07-4.88-7.73-10.63-10.68-.92-1.22-1.83-2.49-2.75-3.76,8.14,1.73,15.56,3.3,22.63,6.15,8.49,3.36,16.48,8.09,24.41,10.78l-10.22,1.68C253.66,322.94,251,321.11,246.54,319.84Zm5.09,10.76c-1.24.43-2.54.8-3.77,1.24-.87-2.35-1.73-4.7-2.54-7.11C248.79,325.34,250.89,327.26,251.63,330.6Zm-12.18-8.66c3.46,3.71,5,7.85,5.07,10.95a8.09,8.09,0,0,0-6.86,1C237.91,330,234.38,324.54,239.45,321.94Zm40.44,44.64c-.74-5.94-5.81-10.51-10.2-15,.5-3.52-.43-8.78-3.77-10.45-5.44-2.6-10.39.74-10.94-2s-2-4.08-7.36-5.75c3.22-.43,6.43-.8,9.65-1.3s6.74-2.6,9.89-1.48a36.18,36.18,0,0,0,5.41,1.31,178.62,178.62,0,0,0,20.24,55.19c-6.3-2.58-14.38-5-21.32-7C276,377.28,280.45,371.53,279.89,366.59ZM251.66,243.89c-.67-1-2.74-.5-3.3-1.57-.73-1.34.11-3,.17-4.53,2.24-3.75,5.21-5.93,8.9-6.44a5.13,5.13,0,0,1,1.4,4.87,19,19,0,0,1,11.81-5.6,12.43,12.43,0,0,1,.73,8.06c1.85-.28,6.19-1.06,8-1.29a147,147,0,0,0-8.9,34.1c-7.84-4.42-17.27-9.86-25.11-14.34a21.48,21.48,0,0,0,5.76-5.43C252.55,249.55,253.62,246.75,251.66,243.89Zm10.12-42.77a5.32,5.32,0,0,1,4.39-2.29c1.61,1.79,3.09,4,2.1,5.75,1.48.8,4.76.31,3.28,2.16s-5.75,1.92-8.66,2.84C263.57,207.06,263.13,204.21,261.77,201.12ZM272.16,209c1.18,2.84.68,4.89.74,7.48a48.94,48.94,0,0,1,17.48-3.1,178,178,0,0,0-8.07,17.35c-2.06.41-4.78.95-5.76,1.21.93-2.47.87-5.19-1.3-8.72-5.81.12-10,1.67-12.74,4.82.68-3.9-1.55-5.44-4.45-4.2,3.83-3.59,6.68-7.85,7.36-12.12C267,212.31,270,211,272.16,209Zm41.34,40.32a171.71,171.71,0,0,0,9.09,37.28c-2,.8-.62,5.26-.8,8.41-6.06-13.79-13.29-27-17.07-41.61-3.28-12.86-5.56-27.39-3.65-39.2,2.66-16.63,9.34-15.58,11.38.43C313.88,226.23,312.08,237.79,313.51,249.35ZM361.8,147.14c-37.35,38.34-52.31,83.16-34.44,137.58l-2.16.87C302,225.11,327.17,160.75,361.8,147.14Zm-15.38,3.76a24.56,24.56,0,0,0,1.42-7.9c3.83.43,7.67-.8,11.5-1.92a33.16,33.16,0,0,0-12.53,9.54Zm243.47,10.53c6.58,8.61,14.58,19.44,15,29.34.43,9.35-8.86,11.56-12.73,1.29C588.72,182.83,589.46,172.68,589.89,161.43Zm-.11-11.63c11.32,2.52,25.22,5.84,32.36,13.66,6.71,7.38.68,15.5-9.53,9.72C603.5,168.07,597.16,159.27,589.78,149.8Zm14,58.19c6.25,7.79-.37,15.58-10.2,9.09-8.78-5.75-14.53-15-21.33-25C583.42,195.37,597.15,199.64,603.77,208ZM482.91,434.35c-2.35.06-2.78-1.67-3-3.9s.43-3.09,1.42-3.4,2.47,1.05,3.28,2.84S485.19,434.35,482.91,434.35Zm1,26c.25,1.17.68,2.66.18,3.65a3.43,3.43,0,0,1-1.55-2.16A57.36,57.36,0,0,1,481,453c-.37-2.6-.93-5.69-.62-8,.19-1.24.56-.49.62.19.31,2.41.93,4.82,1.24,7.23C482.66,455.13,483.4,457.35,483.9,460.38Zm-6.25-23.5c-2.29.06-2.72-1.67-3-3.83s.43-3.09,1.42-3.4,2.47,1.05,3.21,2.78S479.94,436.89,477.65,436.89ZM478.89,465a2.85,2.85,0,0,1-1.24-1.92,53.59,53.59,0,0,1-1-7.85c-.19-2.29-.56-5-.12-7,.18-1.11.49-.37.49.19.19,2.1.62,4.27.8,6.37.25,2.41.74,4.39,1.05,7.11C479,462.86,479.38,464.22,478.89,465Zm-17.81-44.77c-.8.06-1.55-2.47-1.67-5.69s.56-5.75,1.36-5.81,1.61,2.47,1.67,5.63S461.95,420.19,461.08,420.25Zm1.17,9c0,1.86-.19,3.34-.5,3.4s-.56-1.42-.62-3.28.19-3.34.49-3.34S462.19,427.43,462.25,429.22ZM377.42,255.53a61.9,61.9,0,0,0-3.52,20.65c0,.87.06,1.79.06,2.66H334.45A128.59,128.59,0,0,1,329.07,242c0-.56.06-1.11.06-1.67ZM329.87,228a122.08,122.08,0,0,1,3.4-18.61l46.19,30.3,4.27,2.84a60,60,0,0,0-4.27,7.85,7.58,7.58,0,0,0-.43,1.05Zm1.67,66.53c3.09,4.27,4.76,9.15,3.65,10.82s-4.51-.5-7.61-4.82-5.38-8.1-3.65-10.82S328.45,290.22,331.54,294.55Zm57.32,82.17-.31,9.27c-6.74-5.94-15.27-16.76-16.39-39.82-14.65-12.92-25-25.35-34.87-38.89,10.76,13,22.26,25.66,37.28,36.73C373.77,359.85,380.14,369.37,388.86,376.73Zm6.8-46.37c-4.64-5.87-12.18-8.66-8.41-13.17,4.47-5.26,13.09-5.44,21.53-5.73-1,8.1-1.7,16.23-2.11,24.28-.49,9.71-1.85,16.45-6.31,25.17-3.34,6.43-4.27,3.46-7.67,8.1-.64.89-1.41,1.89-2.2,3-6.75-4.32-12.79-11.06-14.93-18.6a29.72,29.72,0,0,1-.52-4.63C390.93,342.08,399.23,334.84,395.66,330.35Zm23.43,23.19c-.74-.12-1.05-2.35-.68-4.89s1.24-4.51,2-4.39,1.05,2.29.68,4.89S419.84,353.66,419.1,353.54Zm.37,11.75c-.25,3-1.36,5.38-2.41,5.26s-1.73-2.66-1.42-5.63,1.42-5.38,2.47-5.26S419.78,362.32,419.47,365.29Zm-.19-30.3c-.43,2.91-2,5.13-3.4,4.88s-2.29-2.78-1.79-5.69,2-5.25,3.4-5S419.78,332,419.28,335Zm-3.4,9.65c.87.12,1.24,2.1.8,4.33s-1.42,4-2.35,3.9-1.17-2-.8-4.33S415,344.51,415.88,344.63Zm-2.1,14.16c1.05.19,1.48,2.78.93,5.75s-1.79,5.19-2.84,5-1.48-2.72-.93-5.69S412.73,358.61,413.78,358.79ZM406.3,363c.49-2.72,1.67-4.82,2.6-4.64s1.36,2.54.87,5.25-1.67,4.76-2.6,4.64S405.8,365.72,406.3,363Zm-.06-15c.37-1.61,1.05-2.84,1.55-2.72s.56,1.55.19,3.15-1.11,2.84-1.55,2.72S405.86,349.58,406.23,348Zm3.52,3.65c-.74-.12-1.05-1.73-.68-3.59s1.17-3.28,1.92-3.21,1,1.73.68,3.59S410.44,351.68,409.76,351.62Zm3.34-17.31c-.43,2.29-1.79,4-2.91,3.77s-1.73-2.23-1.24-4.64,1.79-4.08,3-3.83S413.59,332,413.1,334.31Zm-13.23,48.23c-1.17-.31-1.55-3.4-.8-6.92s2.16-6.06,3.34-5.75,1.48,3.4.8,6.86S401,382.85,399.87,382.54Zm.8,21.27c-1,.06-1.85-3-2-6.92s.62-7.11,1.61-7.17,1.85,3,2,6.92S401.66,403.75,400.67,403.81Zm1.61-38.21c-.8-.25-.87-2.41-.06-4.76s2.1-4,2.91-3.71.87,2.41.12,4.7S403.14,365.84,402.28,365.6Zm-72.16-31.91c.74-2.41,3.77-.87,7,1.73s6.06,7.17,4.7,7.42-3.46.74-6.68-1.86S329.38,336,330.12,333.69Zm.62,8.1c-1.18,1.36-6.43-.87-9.58-2.84s-5.5-3.83-3.83-7.3,5.81-1.86,8,.56S332,340.49,330.74,341.79Zm1.17-18.86c.93-2.35,3.46-.31,6.49,2.54s4.95,6.31,4.33,7.73-3.46.31-6.49-2.54S330.92,325.22,331.91,322.93Zm0,22.88c1.36-3,4.95-1.67,6.86.37s5.81,7,4.82,8.16-5.56-.68-8.29-2.29S330.55,348.84,331.91,345.81Zm6,14.41c.68-2.54,3.65-2,5.38-.68s5.56,4.58,4.95,5.63-4.39.25-6.74-.62S337.29,362.75,337.91,360.22Zm13-21.52c3.34,2.41,5.81,5.63,5.44,7.11s-3.46.74-6.86-1.67-6.06-4.64-5.44-7.11S347.56,336.29,351,338.7Zm-5.75-12.3c.87-2,3.09-.19,5.69,2.29s4.33,5.5,3.83,6.74-3,.25-5.69-2.23S344.4,328.43,345.21,326.39ZM394,401c-.8.06-1.61-3-1.67-6.93s.49-7,1.36-7.17,1.61,3,1.67,6.92S394.86,400.9,394,401Zm1.61,11.81c.74-.06,1.11,1.11.8,2.54s-.68,2.66-1.92,2.72-1.11-1.05-.8-2.47S394.86,412.84,395.6,412.77Zm-5.07,1c.31-1.24,1.05-2.35,1.73-2.41s1,.93.68,2.23-.62,2.35-1.67,2.41S390.28,415.06,390.53,413.76Zm-.31-2.47c-.62,1.36-1.24,2.41-2.41,2.29s-.93-1.3-.31-2.66,1.67-2.35,2.41-2.29S390.78,409.93,390.22,411.29Zm2.16-6.37c-.87,1.61-1.73,2.91-3.22,2.6s-.93-1.67-.06-3.28,2.29-2.72,3.15-2.54S393.25,403.38,392.38,404.92Zm-3.65-3.09c-1.11,1.42-2.23,2.54-3.59,2s-.68-1.73.43-3.21,2.72-2.29,3.59-2S389.79,400.41,388.74,401.83Zm-36.54-44.7c2.23,1,7.11,3.46,6.74,4.7s-4.64,1.48-7.36,1.18-4.95-.8-4.95-3.71S350,356.2,352.19,357.13Zm-7.85-7.54c-.19-3.46,2.91-4.08,5.13-3.15s7.11,3.46,6.86,5-4.33,2.23-7,2.1S344.53,353,344.34,349.58Zm10.08,16.08c1.86.31,6,1.3,5.87,2.47s-3.22,2.29-5.38,2.66-3.83.43-4.33-2S352.56,365.35,354.42,365.66Zm2.72,7.85c2-.8,4.33-.74,5,.19s-.43,2.23-2.53,3-3.83,1.3-4.95-.12S355.1,374.31,357.14,373.51Zm25.1,21.77c-1.36,1.24-2.6,2.16-3.9,1.36s-.31-1.85,1-3.09,3.09-1.86,3.9-1.36S383.54,394,382.24,395.28Zm3.71.56c.8.49.31,1.85-1,3.09s-2.6,2.16-3.9,1.36-.31-1.85,1-3.09S385.15,395.34,386,395.83Zm-6.68-4c-1.36,1.24-2.6,2.16-3.83,1.36s-.37-1.86.93-3.09,3.09-1.86,3.9-1.36S380.57,390.64,379.28,391.87Zm-2.72-4.76c-1.36,1.17-2.6,2.1-3.9,1.36s-.31-1.86,1-3.09,3.09-1.85,3.9-1.36S377.85,385.88,376.55,387.11Zm-3.34-4c-1.86,1.11-3.59,1.92-4.95.68s.06-2.29,1.92-3.46,4.14-1.48,4.95-.68S375.13,381.92,373.22,383.09Zm-5.32,6.49c-1.61,1.48-3.15,2.6-4.7,1.67s-.43-2.29,1.18-3.77,3.77-2.29,4.7-1.67S369.51,388.1,367.9,389.59Zm2.41-12.12c-2.23.87-4.2,1.36-5.38-.19s.43-2.47,2.66-3.34,4.7-.74,5.44.18S372.54,376.6,370.31,377.47Zm-2.78-5.81c-2.29.31-4.33.31-5.07-1.36s1-2.1,3.34-2.35,4.64.31,5.13,1.36S369.88,371.41,367.53,371.66Zm-7,9.15c1.61-1.48,3.77-2.23,4.7-1.67s.43,2.29-1.17,3.77-3.15,2.66-4.7,1.67S358.87,382.35,360.48,380.81Zm.62,7.48c.62.93-1,3.28-2.29,4.51s-2.54,2.16-4.27.56-.62-3.52.87-4.14S360.48,387.36,361.1,388.29Zm-1.61,7.23c1.3-.87,4.27-2.6,5.07-1.86s-.31,3.15-1.24,4.58-2,2.47-3.9,1.3S358.25,396.45,359.49,395.52Zm5.38,5.07c1.24-.87,4.27-2.66,5-1.92s-.25,3.21-1.24,4.64-1.92,2.47-3.9,1.3S363.57,401.46,364.87,400.59Zm2.91-4.58c-1.48-.87-.43-2,1.05-3.46s3.46-2,4.33-1.55.43,2.1-1.05,3.46S369.2,396.88,367.77,396Zm5.07,1.3c1.24-1.36,3-2.1,3.83-1.67s.49,1.92-.8,3.28-2.47,2.35-3.9,1.61S371.55,398.68,372.85,397.32Zm4.39,4.82c1.05-1.05,2.41-1.67,3.09-1.3s.37,1.48-.62,2.54-2,1.92-3.09,1.3S376.25,403.19,377.24,402.14Zm3.21,3c1-1.05,2.41-1.67,3-1.3s.43,1.48-.62,2.54-2,1.92-3.09,1.3S379.4,406.22,380.45,405.17Zm2.84,3.09c.68-1.3,1.85-2.29,2.6-2.16s.8,1.36.12,2.66-1.36,2.35-2.53,2.16S382.68,409.62,383.29,408.26Zm6-11.93c-11.19-11.56-18-27.82-19.72-49.59,1.36,1.11,2.47,4.88,2.78,6.62,3,18.24,6.86,28.57,17.13,38.27Zm-18.36-33.58c.56,1.17-1.24,2.41-4,2.72s-5.07.37-6-1.61,1.24-2.41,4-2.72S370.37,361.58,370.93,362.75Zm-6.74-4.14c-3.15-.06-5.75-.31-6.49-2.41s1.73-2.23,4.88-2.17,6.06,1.17,6.49,2.41S367.34,358.67,364.19,358.61Zm-.25-6.12c-3.15-.43-5.75-1.05-6.18-3.22s2-2,5.13-1.55,5.87,1.92,6.12,3.22S367,352.92,363.94,352.49Zm3-6.37c-.31,1.3-3,.62-5.87-1.48s-5.26-4.08-4.7-6.25,3-.62,5.94,1.48S367.34,344.82,367,346.12ZM342.73,366.4c2.16.56,6.86,2,6.74,3.21s-4,2-6.43,2.16-4.58,0-5-2.6S340.57,365.9,342.73,366.4Zm3.83,7.3c1.73-.12,5.75-.19,6.12,1s-2.1,3-3.9,3.89-3.34,1.36-4.58-.87S344.77,373.88,346.57,373.7Zm4.51,9.34c1.67-.5,5.63-1.36,6.18-.25s-1.42,3.4-3,4.58-3,2-4.7.06S349.35,383.59,351.08,383Zm.49,7.54c0,1.3-3.71,2.66-6.31,3.15s-4.64.68-5.44-1.92,2.1-3.71,4.39-3.52S351.57,389.34,351.57,390.58Zm-3.77,4.76c2-.43,6.68-1.05,7,.06s-2.54,3.28-4.64,4.39-3.9,1.79-5.26-.18S345.76,395.77,347.8,395.34Zm4.82,5.63c1.86-.93,4.76-1.79,5.38-.87s-.19,3-2,4.58-3.34,2.72-5.13,1.05S350.71,401.83,352.63,401Zm5.19,5.56c1.73-1.17,4.45-2.47,5.19-1.61s.25,3-1.3,4.82-2.91,3.15-4.95,1.79S356.09,407.7,357.82,406.53Zm6,5.56c1.55-1.36,4.08-3,4.95-2.23s.56,2.91-.68,4.88-2.47,3.52-4.7,2.41S362.21,413.45,363.82,412.09Zm6.37-7.61c1.24-.87,4.27-2.6,5.07-1.92s-.31,3.21-1.3,4.64-1.92,2.47-3.83,1.3S368.89,405.41,370.19,404.49Zm4,4.95c1-.93,3.4-2.78,4.14-2.29s.12,2.78-.56,4.14-1.36,2.35-3.15,1.55S373.28,410.3,374.21,409.43Zm4.14,4c.8-1.05,2.91-3.28,3.71-2.84s.56,2.72.12,4.14-1.05,2.54-2.91,2S377.48,414.5,378.35,413.45Zm4.64,3.15c.8-1.05,2.91-3.21,3.71-2.78s.56,2.72.06,4.14-1,2.47-2.91,2S382.12,417.66,383,416.61ZM385,427c.74-1.73,2.1-3,3-2.72s1.67,1.18,1.42,3.22-.68,3.77-2.84,3.71S384.22,428.66,385,427Zm4.08-3.59c-1.92-.19-2.1-2-1.48-3.15s2.29-3.71,3.15-3.4,1.05,2.54.8,4S391,423.53,389,423.41Zm1.24,6.49c.8-1.79,2.23-3.15,3.28-2.84s1.73,1.17,1.48,3.4-.74,4-3,3.9S389.54,431.69,390.28,429.9Zm4.58-4.08c-1.92.31-2.54-1.42-2.16-2.66s1.42-4.14,2.29-4.08,1.61,2.29,1.73,3.77S396.77,425.57,394.86,425.82Zm-.31-46.75c-.93-.37-1-3-.12-6s2.47-5,3.4-4.7,1,3.09.12,6S395.54,379.45,394.55,379.07Zm-53.11-62.88c3,2.84,4.95,6.31,4.39,7.73s-3.52.31-6.49-2.54-5.38-5.44-4.39-7.73S338.4,313.35,341.43,316.19Zm-11.75-9.83c3.71,4.7,5.13,9.77,3.22,11.32s-6.49-1.11-10.2-5.81-6.31-8.84-3.15-11.25S326,301.66,329.69,306.36Zm-4.33,11.93c3,3.34,6.18,9.52,4.82,10.64s-6.74-.68-10-3.4-4.7-6.55-2.6-9.77S322.33,315,325.36,318.29ZM314.19,311c-7.54-4.45-13.29-13.23-18.12-20.53-5.44-8.1-11.07-16-14.47-25.17a14.35,14.35,0,0,1,.62-11.13c4.08,2.29,6.12,5.38,7.85,9,4,8.35,7.48,17.07,12.37,25,4.14,6.8,9.71,12.92,13.67,20.09C317.09,310.07,317.83,313.1,314.19,311ZM284.61,281.5c4.39,6.31,8.35,12.92,13.29,18.8,4.33,5.07,9.21,9.77,13.79,14.72,1.17,1.24,2,3.77-1.18,2.47-5.87-2.41-12.61-9.09-17.5-14.41-5.44-5.94-11.13-11.69-15-18.73a12.25,12.25,0,0,1-1-9.21A15.94,15.94,0,0,1,284.61,281.5Zm-2.16,14.72c4.82,5.19,9.28,10.76,14.53,15.46,4.51,4,9.58,7.73,14.34,11.56,1.24,1.05,2.35,3.21-.74,2.47C305,324.23,298,319,292.83,314.77c-5.69-4.7-11.56-9.21-16-15.09a11.19,11.19,0,0,1-2-8.22A14.34,14.34,0,0,1,282.45,296.22Zm.8,14.1c4.7,4.08,9.15,8.53,14.22,12.12,4.39,3.09,9.15,5.81,13.79,8.78,1.18.74,2.29,2.6-.49,2.23-5.07-.74-11.69-4.64-16.57-7.85-5.5-3.59-11.07-7-15.58-11.69a9.72,9.72,0,0,1-2.6-7A12.86,12.86,0,0,1,283.25,310.32Zm.74,13.17c4.88,2.84,9.58,6,14.72,8.35,4.45,2,9.15,3.59,13.73,5.32,1.17.49,2.53,1.92,0,2-4.64.25-11.19-2.1-16.14-4-5.44-2.23-11-4.27-15.83-7.73a8.51,8.51,0,0,1-3.46-5.75A11.38,11.38,0,0,1,284,323.49Zm.43,9.89c4.88,2.1,9.58,4.45,14.72,6.18,4.45,1.48,9.15,2.72,13.73,4.08,1.17.31,2.54,1.42,0,1.49-4.64.18-11.19-1.55-16.14-3-5.44-1.67-11-3.22-15.83-5.81a6.47,6.47,0,0,1-3.46-4.27A13.87,13.87,0,0,1,284.43,333.38Zm2.47,10.08c4.51,1.54,9,3.34,13.67,4.45,4.14,1.05,8.47,1.73,12.68,2.6,1.11.25,2.35,1.11.12,1.36-4.2.56-10.2-.5-14.72-1.48-5.07-1.05-10.14-2-14.65-4a6,6,0,0,1-3.52-3.65A13.53,13.53,0,0,1,286.9,343.46Zm1.17,7c4.64,1.11,9.15,2.41,14,3.15,4.14.68,8.53,1.05,12.8,1.61,1.11.12,2.47.8.19,1.17-4.08.74-10.2.12-14.78-.5-5.07-.62-10.2-1.17-14.9-2.66a5.94,5.94,0,0,1-3.71-3A13.81,13.81,0,0,1,288.07,350.51Zm1.61,6.24c4.64,1,9.21,2.17,14,2.78,4.14.56,8.53.87,12.8,1.24,1.11.12,2.47.8.25,1.24-4.08.8-10.14.37-14.78-.12-5.13-.5-10.26-.93-15-2.29a5.56,5.56,0,0,1-3.77-2.91A14,14,0,0,1,289.68,356.75Zm2.72,7.11c5.38.43,9.4,1.36,14.22,1.67,4.2.25,8.53,1,12.86,1.11,1.11.06,2.47.5.31,1-4,.8-9.46.25-14.1.06a106.71,106.71,0,0,1-15.64-1.42,5.9,5.9,0,0,1-4-2.23C287.64,363.12,290.36,363.68,292.4,363.86Zm26.46-19.17c1-3.15,4.7-2.35,6.86-.56s6.74,6.06,5.87,7.36-5.56.12-8.47-1.11S317.94,347.85,318.87,344.7Zm10.57,9.71c2.29.56,7.23,2.16,7.11,3.4s-4.14,2.1-6.8,2.23-4.76,0-5.19-2.72S327.15,353.85,329.44,354.4Zm2.29,8.22c2.16.19,7.11,1,7.11,2.23s-3.59,2.54-6.06,3-4.51.62-5.26-1.86S329.5,362.38,331.73,362.63Zm3.46,9.65c2.23.19,7.11,1,7.11,2.23s-3.59,2.54-6.06,3-4.51.62-5.26-1.86S333,372,335.19,372.27Zm6.55,7.48c2.41.25,7.73,1.11,7.79,2.47s-4,2.78-6.62,3.28-4.95.68-5.75-2S339.33,379.57,341.74,379.75Zm-3.83,22c.74-.37,1.86-.56.56.56-2.29,2-6.06,3.59-9.15,5.07a80.86,80.86,0,0,1-10.82,4.58,4.72,4.72,0,0,1-3.46-.12c.74-1.3,2.72-1.85,4.08-2.47,3.71-1.55,6.68-2.35,10-3.83C331.91,404.18,335.07,403.13,337.91,401.71Zm-15.09,12c3.52-1.73,6.37-2.66,9.52-4.33,2.72-1.42,5.75-2.6,8.47-4.14.74-.37,1.79-.62.62.56-2.16,2.1-5.81,3.77-8.78,5.44a84.13,84.13,0,0,1-10.39,5,4.62,4.62,0,0,1-3.4.06C319.55,415,321.46,414.38,322.82,413.7Zm3.09,3.77c3.4-1.85,6.25-3,9.34-4.76,2.6-1.54,5.56-2.91,8.22-4.58.68-.43,1.73-.74.62.5-2.1,2.16-5.63,4.08-8.47,5.87a85.41,85.41,0,0,1-10.08,5.57,4.43,4.43,0,0,1-3.4.25C322.7,419,324.62,418.21,325.91,417.47Zm3.77,3c3.22-2,5.87-3.21,8.72-5.13,2.47-1.61,5.19-3.09,7.67-4.82.68-.43,1.67-.74.68.43-1.92,2.23-5.19,4.27-7.85,6.12a74.11,74.11,0,0,1-9.46,5.87,4.18,4.18,0,0,1-3.28.37C326.66,422.11,328.45,421.24,329.69,420.5Zm2.66,4c3.09-2.16,5.69-3.46,8.47-5.5,2.35-1.79,5-3.34,7.42-5.26.62-.5,1.61-.87.68.43-1.79,2.35-4.95,4.51-7.54,6.49a78.47,78.47,0,0,1-9.15,6.37,4.08,4.08,0,0,1-3.22.56C329.44,426.25,331.17,425.33,332.34,424.46Zm3.83,2.84c2.78-2.29,5.13-3.71,7.61-5.81,2.16-1.86,4.58-3.53,6.74-5.44.56-.5,1.42-.93.62.37-1.48,2.29-4.39,4.58-6.68,6.62a72.87,72.87,0,0,1-8.22,6.62,4.06,4.06,0,0,1-3,.74C333.52,429.16,335.13,428.17,336.18,427.3Zm3.71,2.72c2.6-2.47,4.88-4.08,7.17-6.37,2-2,4.33-3.77,6.31-5.87.56-.56,1.42-1,.68.31-1.36,2.41-4.08,4.88-6.18,7.11a76.38,76.38,0,0,1-7.79,7.17,3.9,3.9,0,0,1-2.91.93C337.35,432.06,338.84,431,339.89,430Zm3.28,3.09c2.54-2.54,4.76-4.14,7-6.49,2-2,4.2-3.9,6.18-6.06.49-.5,1.36-1.05.68.31-1.3,2.47-4,4.95-6.06,7.24a71,71,0,0,1-7.61,7.36,3.89,3.89,0,0,1-2.91,1C340.69,435.16,342.18,434,343.17,433.12Zm4.08,3.21c2.41-2.66,4.58-4.39,6.74-6.8,1.86-2.1,4-4.14,5.87-6.31.49-.62,1.3-1.11.68.25-1.17,2.47-3.71,5.13-5.69,7.48a72.1,72.1,0,0,1-7.23,7.73,4,4,0,0,1-2.84,1.17C344.9,438.56,346.32,437.32,347.25,436.33Zm4.7,2.72c2.16-2.66,4.14-4.39,6.06-6.8,1.67-2.16,3.65-4.14,5.32-6.37.37-.56,1.17-1.11.62.25-1,2.41-3.28,5.07-5,7.42a67.46,67.46,0,0,1-6.55,7.73,3.81,3.81,0,0,1-2.66,1.24C349.78,441.28,351.08,440,351.95,439.05Zm4,2.72c2-2.66,3.77-4.39,5.5-6.8,1.48-2.1,3.21-4.14,4.7-6.31.37-.56,1.05-1.11.62.19-.8,2.35-2.84,5-4.45,7.36a66.15,66.15,0,0,1-5.75,7.6,3.63,3.63,0,0,1-2.54,1.3C354,443.94,355.16,442.76,355.9,441.77Zm3.71,1.79c1.79-2.72,3.46-4.58,5.07-7,1.36-2.17,3-4.27,4.39-6.49.31-.62,1-1.24.62.12-.68,2.41-2.6,5.13-4,7.54a61.29,61.29,0,0,1-5.38,7.91,3.94,3.94,0,0,1-2.41,1.48C357.82,445.91,358.87,444.62,359.61,443.57Zm3.65,2.29c1.67-2.78,3.28-4.76,4.76-7.36,1.24-2.23,2.78-4.39,4-6.68.31-.62.93-1.24.62.06-.56,2.47-2.29,5.32-3.65,7.79a67.47,67.47,0,0,1-4.95,8.22,3.62,3.62,0,0,1-2.35,1.55C361.59,448.27,362.64,446.91,363.26,445.85Zm6.43-24.61c-2.35-.8-1.67-3.59-.31-5.13s3.71-3.52,4.64-2.84,1,2.78,0,4.95S372,422,369.69,421.24ZM375,420c1.36-1.55,3.28-2.47,4.2-1.86s1.42,1.79.43,4-2,3.77-4.33,3S373.65,421.55,375,420Zm4.88,4.21c1-1.55,2.54-2.6,3.4-2.16s1.48,1.36.93,3.4-1.24,3.59-3.4,3.21S378.9,425.82,379.89,424.21Zm1,22c.74-2.29,1.73-4.58,2.35-6.93.19-.62.68-1.36.62-.06,0,2.35-1.05,5.32-1.79,7.85a62.21,62.21,0,0,1-3,8.47,3.52,3.52,0,0,1-1.85,1.92c-.31-1.05.37-2.47.74-3.59C379,451,380,448.88,380.88,446.22Zm.43,9.52c1.17-2.84,2.35-4.89,3.28-7.48.87-2.23,2-4.45,2.72-6.8.25-.62.74-1.3.62,0-.12,2.35-1.36,5.19-2.16,7.73a62.57,62.57,0,0,1-3.4,8.29,3.71,3.71,0,0,1-1.92,1.86C380.14,458.22,380.88,456.86,381.32,455.75Zm4.33,2.29c1.11-2.84,2.29-4.88,3.28-7.48.87-2.23,2-4.51,2.78-6.8.19-.62.74-1.3.62,0-.19,2.35-1.36,5.19-2.23,7.73a70.73,70.73,0,0,1-3.46,8.29,3.36,3.36,0,0,1-1.92,1.79C384.41,460.51,385.21,459.09,385.64,458Zm4.2-.62c1.05-2.41,2.23-4.14,3.15-6.31.8-1.92,1.86-3.77,2.6-5.75.19-.5.68-1.05.62,0-.12,2-1.24,4.39-2.1,6.49a47.56,47.56,0,0,1-3.22,7,3.23,3.23,0,0,1-1.92,1.48C388.67,459.46,389.42,458.28,389.85,457.42Zm5.69-25c.8-1.73,2.23-3.09,3.22-2.78s1.73,1.18,1.48,3.4-.74,3.9-3,3.83S394.73,434.23,395.54,432.44Zm4-18.92c-.12-2.84.56-5.19,1.55-5.19s1.79,2.16,1.92,5-.62,5.13-1.55,5.19S399.56,416.3,399.5,413.52Zm3.28,11.81c.31,0,.56,1.42.62,3.28s-.19,3.34-.49,3.34-.56-1.42-.62-3.21S402.46,425.39,402.77,425.33Zm.87-47c.68-3.52,2.29-6.18,3.65-5.87s1.79,3.34,1.11,6.86-2.29,6.12-3.65,5.87S403,381.79,403.64,378.33Zm4,14.84c1-.06,1.92,3,2,6.92s-.62,7.11-1.61,7.17-1.85-3-2-6.92S406.67,393.23,407.66,393.17Zm1.42-13.73c.8-4,2.66-7,4.14-6.68s2.1,3.83,1.3,7.85-2.6,7-4.14,6.68S408.27,383.46,409.08,379.45Zm4.33,33c1.24-.06,2.41,2.91,2.54,6.62s-.8,6.74-2,6.8-2.41-2.84-2.54-6.55S412.17,412.46,413.41,412.4Zm1.73-4.27c-1.17.06-2.23-3-2.35-6.92s.74-7.11,1.92-7.17,2.16,3,2.29,6.93S416.31,408.07,415.14,408.14Zm1.73-17.87c-1.55-.31-2.16-4-1.36-8.16s2.78-7.36,4.33-7,2.23,4,1.36,8.22S418.42,390.58,416.87,390.27Zm4.39-25.16c.31-3.28,1.48-5.81,2.66-5.69s1.86,2.84,1.55,6.12-1.55,5.81-2.72,5.69S421,368.38,421.26,365.1Zm2.91-9.59c-.93-.06-1.55-2.66-1.48-5.81s1-5.63,1.86-5.56,1.61,2.66,1.48,5.81S425.09,355.58,424.17,355.52ZM424,340.31c-1.67,0-3-2.85-3-6.25s1.42-6.25,3.09-6.25,3,2.91,3,6.31S425.65,340.31,424,340.31Zm2.78-16.2c-1.73.25.5-4.95-1.24-5.07s.43,4.82-1.24,4.95.56-5-1.05-4.76.49,4.95-1.24,5.07.93-4.95-.74-4.95-.5,5.19-2.29,4.95,1.61-5.13-.19-5.25-.62,4.64-2.47,5.07c-1.42.37,1.11-4.14-.31-4.39s-.25,4.64-1.61,4.08c-1.55-.68,1.11-5.07-.56-4.95-1.92.13-2.23,7-2.6,5.13-1.11-4.76.31-9.65.5-14.47a87.86,87.86,0,0,0,27-1.42c1.24,4.21,3.59,8.29,3.71,12.68,0,1.85-1.79-4.7-3.52-4.21s.68,4.88-1,5.44-.12-5.13-1.61-4.58c-1.86.74.31,5.26-1.61,5.81-1.61.49.43-5.26-1.24-4.95s.62,5.38-1.24,5.5.37-4.95-1.42-5.32c-1.61-.31.43,4.64-1.24,4.76s.12-5.07-1.36-4.58C426.33,319.22,428.62,323.86,426.76,324.11Zm-13.11-61.58c6.18.68,14.28-2,22.45-1.73-7.79,1.55-15.46,5.81-23.31,4.58-5.19-.8-9.52-5.75-12.18-10.26C404.81,259.18,408.71,262,413.65,262.52ZM400.3,247.74c2.53,4.64,7.17,6.43,11.25,7,8.41,1.17,17.07-1.36,25.41-.19,3.53.49,7.3,1.92,9.65,4.76a57.85,57.85,0,0,0-10.7-.68c-8.78,0-17.44,1.92-25.91.31C404.56,258,401.16,252.32,400.3,247.74Zm35.62,20.65c-.06-.74-.12-1.42-.19-2.16-.87.68-1.73,1.3-2.66,2,.06-.62.12-1.17.19-1.79-.8.68-1.61,1.3-2.47,2,.06-.74.12-1.42.19-2.16-.74.74-2.23,2-3,2.66.06-.68.8-1.92.87-2.66-.87.74-3.15,2.16-4.08,2.84.31-.74,2-2.23,2.29-3,6.86-3,13-4.64,18.49-4.39-.5,1.92-3.9,2-4.2,4.27-.31,1.67,1.48,3.71,2.1,5.26a62.45,62.45,0,0,1,10.2,0c-4.21,1.48-11.07,1.79-14.1,4.95-2.72,2.91-3.09,7.67-3.65,11.5-.43-1.11-.8-2.29-1.24-3.4-.37,1.36-.8,2.72-1.24,4.08-.43-.8-.93-1.67-1.42-2.47-.37.74-.8,1.55-1.24,2.29-.37-1.05-.8-2.1-1.24-3.15-.43,1-.93,2-1.36,3,0,0-1.79-4.58-2-3.15a31.4,31.4,0,0,1-.87,3.71c-.43-1.11-.8-2.23-1.24-3.34-.56.93-1.05,1.85-1.61,2.78-.31-.93-.68-1.85-1.05-2.78-.37,1.05-.68,2.1-1.05,3.15-.49-.93-.93-1.86-1.42-2.84-.43.87-.8,1.67-1.24,2.47-.19-.8-.37-1.61-.49-2.47-.49.62-1,1.17-1.42,1.79l3.52-14.1A40.19,40.19,0,0,1,435.91,272c1.24-1.92,2.41-3.83,3.65-5.81Zm11.25-2c0,.62-.93,1.11-2,1.11s-2-.49-2-1.11.93-1.17,2-1.17S447.17,265.67,447.17,266.35Zm8.29-3.65-4.76-1.61.37-5.44,4.39,2.29Zm10.39,8.84a22.53,22.53,0,0,0-11.07-2.84l.12-4.2C460.21,265.49,464.85,267.72,465.84,271.55Zm-13.54-3.9-3.4-.37a24,24,0,0,0,1.24-2.6Zm-16.57,24L438,304.75l-2.29-2.84v3l-2.1-1.92-.37,3.15-1.55-3.34-.93,2.85-1.36-2.85-.93,3.34-1.42-3-1.24,2.47-1.36-2.47-1.61,2.29-1.24-3.15-.87,3-1.05-3.15-1.24,2.78-.93-2.78-1.24,2.66-1.05-2.84-1.61,2.1-.31-2.47L412.29,304l2.47-13.42A77.07,77.07,0,0,0,435.73,291.64Zm62.39,55c.08.32.13.65.18,1h0a30,30,0,0,1-1.65,9.74C493.13,365.32,485,373.1,476.71,377a14.13,14.13,0,0,0-3.2-4c-3.34-2.78-6.62-2.91-10.51-8.29-6.68-9.21-10-18.73-13-29.68-2.31-8.22-5.19-15.89-7.57-23.55,10.77.83,28.19-2,34.1,4.69,4,4.45-3.65,7.61-6.18,14.16C468.19,335.79,481.17,340,498.12,346.67ZM496,255.53l48.23-15.21c0,.56.06,1.11.06,1.67a128.57,128.57,0,0,1-5.38,36.85H499.35c.06-.87.06-1.79.06-2.66A63.49,63.49,0,0,0,496,255.53Zm-1.61-4.08c-.19-.37-.31-.68-.5-1.05a60.12,60.12,0,0,0-4.27-7.85L540,209.41a122.14,122.14,0,0,1,3.4,18.61Zm49,43.1c3.15-4.33,5.87-7.54,7.61-4.82s-.56,6.55-3.65,10.82-6.49,6.49-7.61,4.82S540.22,298.82,543.32,294.55Zm19.35-45.2c1.42-11.56-.37-23.13,1.11-34.69,2-16,8.66-17.07,11.38-.43,1.85,11.81-.43,26.34-3.71,39.2-3.71,14.59-11,27.82-17,41.61-.19-3.15,1.11-7.6-.87-8.41A168.17,168.17,0,0,0,562.67,249.35ZM549.29,165c10.64,2.34,23.74,5.35,30.51,12.61,6.34,6.89.74,14.58-8.92,9.23C562.33,182,556.31,173.85,549.29,165Zm6.08,135.62c3.09,2.41.43,6.55-3.21,11.25s-8.22,7.3-10.2,5.81-.43-6.62,3.21-11.32S552.22,298.14,555.37,300.61Zm-16.76,30.05c-3,2.84-5.94,4-6.49,2.54s1.36-4.88,4.39-7.73,5.5-4.88,6.49-2.54S541.59,327.82,538.62,330.66Zm1.36-17c.93,2.29-1.42,4.88-4.39,7.73s-5.94,4-6.49,2.54,1.36-4.88,4.39-7.73S539,311.31,540,313.66Zm-15.33,113c2.29,2.35,4.51,4,7.11,6.49,1,.93,2.41,2,2.66,3.34a4,4,0,0,1-3-1,77.29,77.29,0,0,1-7.6-7.36c-2.1-2.29-4.76-4.76-6-7.24-.74-1.36.12-.8.62-.31C520.44,422.73,522.66,424.58,524.64,426.62Zm-3.15-8.84c2,2.1,4.27,3.9,6.31,5.87,2.35,2.29,4.58,3.9,7.24,6.37,1,.93,2.47,2,2.72,3.28a4,4,0,0,1-3-.93,75.74,75.74,0,0,1-7.73-7.17c-2.16-2.23-4.88-4.7-6.25-7.11C520.13,416.79,521,417.22,521.49,417.78Zm8.66,22.07a4.1,4.1,0,0,1-2.91-1.17A72,72,0,0,1,520,431c-2-2.35-4.51-5-5.69-7.48-.62-1.36.25-.87.68-.25,1.86,2.16,4,4.21,5.87,6.31,2.16,2.41,4.33,4.14,6.74,6.8C528.6,437.32,530,438.56,530.15,439.86Zm-12-28.32c-2,1.36-3.46,0-5-1.79s-2-3.9-1.3-4.82,3.46.43,5.26,1.61S520.19,410.18,518.15,411.54Zm-2.72-12c-1.92,1.17-2.91.12-3.83-1.3s-2-3.9-1.24-4.58,3.77,1,5,1.86S517.35,398.37,515.43,399.54Zm-36.73,8.53c-.62-1.48-.43-2.66.5-2.72s2.1,1.17,2.72,2.66,1,2.66-.5,2.72S479.32,409.56,478.7,408.07Zm1.67,10c-1.24-.06-1.61-1.3-1.92-2.72s.06-2.6.8-2.54,1.61,1.3,1.92,2.78S481.61,418.15,480.37,418Zm-10.33-15c1,0,1.86,2.23,1.92,5.07s-.56,5.13-1.55,5.19-1.79-2.23-1.92-5S469.12,403.13,470,403.07Zm-1.85-3.4c-.93.06-1.85-3-2-6.93s.62-7,1.61-7.17,1.92,3,2,6.92S469.18,399.6,468.19,399.66Zm5.13-19.29c.87-.06,1.61,3,1.67,6.92s-.5,7.11-1.36,7.17-1.55-3-1.67-6.93S472.52,380.43,473.32,380.37Zm-2.23,36.79c.19-1.48.93-2.41,1.61-2.1s1.05,1.73.87,3.21-.49,2.6-1.61,2.1S470.85,418.59,471.1,417.16Zm2,7.73c.12-1.48.8-3.71,1.67-3.77s2,2.72,2.35,4-.25,3-2.16,2.72S473,426.38,473.14,424.89Zm2.72-5.69c-1.17-.43-1.17-1.67-1.05-3.15s.8-2.41,1.48-2.16,1.17,1.73,1.05,3.15S477,419.7,475.86,419.2Zm1.36-6.31c-1.24-.06-1.67-1.24-2.1-2.72s-.06-2.66.74-2.66,1.73,1.3,2.1,2.72S478.52,413,477.22,412.9Zm-3.09-7.23.68-5.5c17.75-12.18,23.93-23.5,27.76-46.81.25-1.73,1.36-5.5,2.72-6.62C503,375.12,492.18,394.22,474.13,405.66ZM512,347.73c3.09-.43,5.56-.56,5.13,1.55s-3.09,2.78-6.18,3.22-5.44-.25-5.13-1.55S508.88,348.16,512,347.73Zm.56-7.85c2.91-2.1,5.32-3.59,5.87-1.48s-1.73,4.08-4.64,6.25-5.57,2.78-5.94,1.48S509.68,342,512.59,339.87ZM512.28,354c3.15-.06,5.63.12,4.88,2.17s-3.34,2.35-6.49,2.41-5.32-.87-4.88-2.16S509.12,354.09,512.28,354Zm-2.35,7.11c2.78.31,4.89.8,4,2.72s-3.28,1.92-6,1.61-4.58-1.55-4-2.72S507.21,360.83,509.93,361.14Zm-8.72,24.24c1.36,1.24,2.29,2.29,1,3.09s-2.54-.19-3.83-1.36-1.79-2.66-1-3.09S499.85,384.15,501.21,385.38Zm-1.48-5.75c.87-.8,3-.43,4.95.68s3.28,2.23,1.92,3.46-3,.43-4.95-.68S498.92,380.37,499.72,379.63Zm-1.24,10.51c1.36,1.24,2.29,2.35,1,3.09s-2.54-.12-3.9-1.36-1.73-2.6-.93-3.09S497.13,388.91,498.49,390.14Zm-3,3.4c1.36,1.24,2.29,2.35,1,3.09s-2.54-.12-3.83-1.36-1.79-2.6-1-3.09S494.22,392.31,495.52,393.54Zm-2.72,3.65c1.36,1.24,2.29,2.35,1,3.09s-2.54-.12-3.9-1.36-1.73-2.6-.93-3.09S491.44,396,492.8,397.19Zm1.73,3.65c.68-.37,2,.25,3.09,1.3s1.73,2,.62,2.54-2-.25-3-1.3S493.85,401.21,494.53,400.84Zm3.65-5.19c.87-.43,2.6.31,3.9,1.67s2.16,2.54.8,3.22-2.6-.31-3.9-1.61S497.38,396.14,498.18,395.65Zm4.64-1.17c-1.48-1.36-2-2.91-1.11-3.46s2.84.19,4.33,1.55,2.54,2.6,1.11,3.46S504.3,395.89,502.82,394.47Zm4.14-4.89c-1.61-1.48-2.16-3.21-1.17-3.77s3.09.19,4.7,1.67,2.78,2.84,1.24,3.77S508.63,391.07,507,389.59Zm-2.41-12.12c-2.23-.87-3.4-2.35-2.66-3.34s3.15-1,5.38-.18,3.9,1.79,2.66,3.34S506.77,378.33,504.55,377.47Zm2.78-5.81c-2.35-.25-3.9-1.3-3.4-2.35s2.78-1.67,5.13-1.36,4.14.68,3.4,2.35S509.68,372,507.33,371.66Zm-21.52,32.59c.87,1.61,1.36,3-.12,3.28s-2.29-1-3.15-2.6-.87-3,.06-3.21S484.95,402.63,485.81,404.24Zm-3.15,7.11c.62.06,1.42,1.18,1.67,2.41s.37,2.35-.68,2.23-1.48-1.11-1.73-2.41S482,411.29,482.66,411.35Zm2.29-2.72c.8-.06,1.85,1,2.41,2.29s.93,2.54-.25,2.66-1.85-.93-2.41-2.29S484.21,408.75,484.95,408.63Zm1.24-6.8c-1.11-1.42-1.3-2.91-.43-3.22s2.41.56,3.53,2,1.85,2.72.49,3.21S487.3,403.25,486.18,401.83ZM489,406.1c.74-.12,1.86.87,2.54,2.16s1.05,2.41-.12,2.66-1.92-.87-2.6-2.16S488.29,406.28,489,406.1Zm3,.31c-1-1.05-1.3-2.16-.62-2.54s2,.25,3,1.3,1.79,2,.68,2.54S493,407.52,492,406.4Zm.8,4.21c.8-.43,2.91,1.79,3.71,2.84s1,2.84-.87,3.34-2.47-.62-2.91-2S492,411,492.8,410.61Zm4.27.68c-.68-1.36-1.24-3.59-.5-4.14s3.09,1.36,4.08,2.29,1.36,2.66-.43,3.4S497.75,412.59,497.07,411.29Zm3.83-4.08c-1-1.42-2-3.89-1.24-4.64s3.77,1.05,5,1.92,2,2.84.12,4S501.89,408.63,500.9,407.21Zm4.08-8.53c.74-.74,3.77,1.05,5.07,1.92s2,2.84.06,4-2.91.12-3.9-1.3S504.24,399.42,505,398.68ZM516,392.8c-1.3-1.24-2.91-3.59-2.29-4.51s4.21.25,5.69.93,2.66,2.53.93,4.14S517.35,394.1,516,392.8Zm-.43-8.22c-1.61,1-3.09-.12-4.76-1.67s-2.16-3.15-1.17-3.77,3.09.19,4.7,1.67S517.16,383.65,515.62,384.58Zm-.37-7.85c-2-.8-3.15-2.16-2.47-3s2.91-1,4.95-.19,3.65,1.61,2.54,3.09S517.29,377.53,515.25,376.73Zm4.7-5.94c-2.1-.37-5.32-1.48-5.38-2.66s4-2.16,5.87-2.47,4.33.62,3.83,3.09S522,371.16,519.94,370.79Zm3.4-7.79c-2.78.31-7,.12-7.36-1.18s4.45-3.71,6.68-4.7,5.57-.68,5.57,2.16S526.07,362.69,523.34,363Zm2.23-9.46c-2.66.12-6.74-.5-7-2.1s4.58-4.08,6.8-5,5.38-.31,5.13,3.15S528.23,353.48,525.57,353.54Zm-.25-9.4c-3.4,2.41-6.43,3.15-6.8,1.67s2-4.7,5.44-7.11,6.18-4.08,6.8-1.67S528.72,341.73,525.32,344.14ZM524,328.68c2.66-2.47,4.88-4.33,5.69-2.29s-1.24,4.33-3.83,6.8-5.13,3.4-5.69,2.23S521.37,331.15,524,328.68Zm-21.64,18.55c-5.07,30.85-14.47,40.31-25,43.84l.19-9.28c14.84-6.06,20.65-20.22,22.75-37.78,15-11.07,26.53-23.74,37.28-36.73C527.73,320.83,517,334.31,502.32,347.23Zm-44.77,16.63c-.8.25-2.1-1.42-2.91-3.77s-.74-4.45.13-4.76,2.1,1.42,2.91,3.77S458.42,363.56,457.55,363.86Zm-7-7c1-.19,2.16,1.92,2.66,4.64s.06,5.07-.87,5.26-2.16-1.92-2.66-4.64S449.64,357,450.57,356.82Zm-2.1-8.72c-.62-2.47-.56-4.7.19-4.89s1.79,1.67,2.41,4.14.56,4.7-.18,4.95S449.08,350.63,448.47,348.1ZM441.66,333c-.5-2.84.19-5.32,1.55-5.56s2.91,1.85,3.4,4.7-.25,5.19-1.61,5.44S442.16,335.79,441.66,333Zm.31,36.48c-1.05.06-2.16-2.29-2.41-5.25s.31-5.57,1.36-5.63,2.16,2.23,2.47,5.26S443.09,369.37,442,369.49Zm.93-20.4c.43,3.4.06,6.37-.93,6.49s-2.23-2.47-2.66-5.87-.06-6.31.93-6.49S442.41,345.69,442.9,349.09Zm-2.35,25.72c1.55-.31,3.53,2.78,4.33,7s.18,7.85-1.36,8.16-3.52-2.78-4.33-7S438.94,375.12,440.55,374.81Zm4.14-31.66c.87-.19,1.85,2.1,2.29,5s.06,5.44-.8,5.63-1.85-2.17-2.29-5.07S443.83,343.27,444.69,343.15Zm-15.21,13.73c-1.24,0-2.23-2.78-2.23-6.25s1-6.25,2.23-6.25,2.23,2.78,2.23,6.25S430.72,356.88,429.48,356.88Zm2.23,10.2c0,3.46-1,6.31-2.23,6.31s-2.23-2.84-2.23-6.31,1-6.25,2.23-6.25S431.71,363.68,431.71,367.08Zm-.74-27c-1.67,0-3.09-2.78-3.09-6.18s1.42-6.25,3.09-6.25,3,2.78,3,6.25S432.64,340.12,431,340.12Zm5.63,16.39c-1.24.12-2.47-2.6-2.78-6.06s.5-6.31,1.67-6.43,2.47,2.66,2.72,6.06S437.83,356.44,436.59,356.51ZM436,371.59c-1.17.12-2.35-2.47-2.66-5.69s.31-6.06,1.48-6.18,2.35,2.47,2.66,5.75S437.21,371.47,436,371.59Zm-.87-37.9c-.31-3.09.62-5.81,2.16-5.94s3,2.23,3.28,5.38-.68,5.75-2.16,5.94S435.48,336.78,435.17,333.69Zm6.55,59.48c1.85-.06,3.52,3.83,3.71,8.72s-1.17,9-3,9-3.46-3.77-3.65-8.72S439.87,393.3,441.73,393.17Zm2.91-29.93c-.56-3-.12-5.57.93-5.75s2.35,2.1,2.84,5.07.12,5.5-.93,5.69S445.13,366.21,444.63,363.25Zm2.54,9.21c1.48-.31,3.34,2.72,4.14,6.74s.18,7.48-1.3,7.79-3.4-2.66-4.14-6.68S445.62,372.77,447.17,372.46Zm3.09,20.28c1.67-.06,3.15,3.4,3.34,7.79s-1.05,7.91-2.72,8-3.09-3.4-3.28-7.79S448.65,392.8,450.26,392.74ZM452,379c-.74-3.53-.19-6.62,1.11-6.86s3,2.35,3.65,5.87.19,6.62-1.11,6.86S452.67,382.54,452,379Zm6-9.46c1.17-.31,2.66,2.29,3.34,5.81s.37,6.55-.8,6.86-2.66-2.29-3.34-5.75S456.88,369.86,458,369.55Zm4.39,32.71c-1,.06-1.86-3-2-6.92s.62-7,1.61-7.17,1.86,3,2,6.93S463.37,402.2,462.38,402.26Zm.06-28.13c-.87-3-.87-5.63.12-6s2.47,1.73,3.34,4.64.87,5.63-.06,6S463.37,377,462.44,374.13Zm3.09,32c.87-.06,1.61,2.47,1.67,5.63s-.5,5.81-1.36,5.87-1.55-2.47-1.67-5.69S464.73,406.16,465.53,406.16Zm-1.11,31.35c.25-2.1,1-2.78,1.79-2.84s1.61,1.48,1.79,3.28-.49,4.21-2.23,3.77S464.11,439.61,464.42,437.51Zm3.46-11.31c.19-1.48.8-3.71,1.73-3.77s2,2.72,2.35,4-.25,3-2.16,2.72S467.76,427.67,467.88,426.19Zm1.17,22.44c.37-.62.68-.19.68.12.06,1.3.5,2.66.62,3.9.12,1.48.68,2.72.93,4.33.06.62.43,1.48-.25,1.85a2.27,2.27,0,0,1-1.48-1.3,15.64,15.64,0,0,1-.74-4.76C468.75,451.42,468.44,449.75,469.06,448.64Zm.12-14.34c-.06-2.6.74-3.52,1.73-3.77s2.23,1.48,2.78,3.65.12,5.19-2,5S469.24,436.83,469.18,434.29Zm4.08,14c.37-.62.68-.19.68.19.06,1.24.43,2.6.56,3.83.19,1.48.74,2.72,1,4.33.06.62.37,1.48-.31,1.92a2.56,2.56,0,0,1-1.42-1.36,15.67,15.67,0,0,1-.74-4.76C473,451.11,472.64,449.44,473.26,448.33Zm4.89-25.47c.19-1.48.8-3.71,1.73-3.77s2,2.78,2.29,4.08-.19,3-2.16,2.66S478,424.34,478.15,422.85Zm5.19-2c-.18-1.48-.06-3.77.8-4s2.54,2.23,3.15,3.4.49,3-1.48,3.15S483.52,422.36,483.34,420.87Zm3.53,3.4c1-.31,2.35,1,3.09,2.72s.56,4.21-1.61,4.21-2.6-1.61-2.84-3.71S485.87,424.58,486.86,424.27ZM488.1,418c-.43-1.42-.74-3.77.06-4.14s2.91,1.73,3.77,2.78.93,2.84-.93,3.34S488.59,419.39,488.1,418Zm3.46,4.08c.93-.43,2.41.62,3.4,2.16s1.24,4.08-.93,4.45-2.78-1.24-3.4-3.21S490.64,422.48,491.56,422Zm3.71.06c-1-2.17-.56-3.28.37-4s2.84.31,4.2,1.86,2,4.33-.25,5.13S496.26,424.27,495.27,422.11Zm5.63-3.9c-1-2.16-1-4.33-.06-4.95s3.28,1.3,4.64,2.84,2,4.33-.25,5.13S501.89,420.38,500.9,418.21Zm5.19-8.35c.87-.74,3.4.87,5,2.23s2.6,4,.37,5.07-3.4-.37-4.7-2.41S505.23,410.67,506.09,409.87Zm5.5,16c1.61,2.23,3.59,4.21,5.26,6.37,2,2.41,3.89,4.14,6.12,6.8.8,1,2.1,2.23,2.16,3.46a3.92,3.92,0,0,1-2.66-1.24,67.07,67.07,0,0,1-6.49-7.73c-1.79-2.35-4.08-5-5.07-7.42C510.36,424.77,511.16,425.33,511.6,425.88Zm15,20.41c3.9-1.36,8.6-2.6,11.81-1.48-1.36,6.68-3.59,13-7.42,17.25-5.94,6.62-13.66,1.92-9.4-7.61A38.06,38.06,0,0,1,526.6,446.29ZM530.46,423c-2.35-2-5.19-4.33-6.74-6.62-.8-1.3.13-.87.68-.37,2.1,1.92,4.51,3.59,6.68,5.44,2.47,2.1,4.82,3.52,7.61,5.81,1.11.87,2.66,1.86,3,3.09a4.06,4.06,0,0,1-3-.74A67.16,67.16,0,0,1,530.46,423ZM524,405.72c-1.85,1.67-3.46.56-5.19-1.05s-2.6-3.59-2-4.58,3.52-.06,5.44.87S525.82,404.12,524,405.72Zm.62-5.94c-2.1-1.11-5-3.34-4.64-4.39s5-.49,7-.06,4.27,2.23,2.84,4.27S526.75,400.9,524.64,399.79Zm-4-12.43c-1.61-1.17-3.59-3.52-3-4.58s4.51-.25,6.18.25,3.21,2.41,1.55,4.39S522.17,388.6,520.62,387.36Zm1.55-12.67c.37-1.18,4.39-1.11,6.18-1s3.59,1.73,2.35,4-2.84,1.73-4.64.87S521.86,375.8,522.17,374.69Zm3.21-5.07c-.12-1.17,4.64-2.66,6.8-3.21s5.07.25,4.64,2.78-2.47,2.72-4.95,2.6S525.57,370.85,525.38,369.61Zm8-5.07c-2.41.87-6.18,1.67-6.8.62s3.15-4.33,4.95-5.63,4.76-1.86,5.38.68S535.77,363.68,533.42,364.54Zm-2.1-10.2c-1.05-1.17,2.91-6.06,4.82-8.16s5.44-3.34,6.8-.37-.62,4.58-3.34,6.24S532.31,355.52,531.32,354.34ZM539.73,341c-3.22,2.6-5.32,2.1-6.68,1.86s1.48-4.95,4.7-7.42,6.24-4.14,7-1.73S542.95,338.39,539.73,341Zm9.83-8.78c2.16-2.41,6.31-4,8-.56s-.62,5.32-3.77,7.3-8.41,4.2-9.65,2.84S547.4,334.68,549.56,332.21Zm5.13-6.68c-3.28,2.72-8.66,4.58-10,3.4s1.92-7.3,4.88-10.64,5.63-5.69,7.73-2.54S558,322.81,554.69,325.53ZM558,297.39c2.91-8.66,7.79-16.51,11-24.86,3.71-9.71,5.81-20,8.59-30,1.17-4.27,2.78-8.1,6.86-11.44a16.41,16.41,0,0,1,2.84,12.12c-1.86,10.76-6.49,20.59-10.82,30.61-3.83,9-8.41,19.85-15.83,26.22C557,303.08,557.23,299.62,558,297.39ZM570.82,164c-6.34-8.37-8.73-18.88-11.81-30.57,9.41,6.83,20.92,15.38,24.36,25.34C586.69,168.19,578,173.3,570.82,164Zm-21.28-34.82c5.17,7.57,1.11,13.53-7.44,7-7.63-5.9-15.32-15.56-20.79-25.16C531.27,114.8,544.06,121.13,549.54,129.19Zm-14.7-16.05c11.38-2.15,26.88-3.63,36.54.61,9.1,4.06,8.74,11.93-3,10.7C558,123.41,545.42,118.92,534.84,113.14Zm18.52,35c7.63,8.43,3.57,16.42-8,9.72-10.4-6-21.41-16.55-29.77-27.5C528.44,133.44,545.3,139.16,553.35,148.14ZM551,285.59l-2.16-.87c17.81-54.41,2.84-99.24-34.5-137.58C549,160.75,574.23,225.11,551,285.59ZM519.7,168.35l.5-.68a123.42,123.42,0,0,1,15.21,27.45l-48.6,43.41a61.15,61.15,0,0,0-11.31-11.62ZM495.21,276.19a45.47,45.47,0,0,1-1,10.15l17.95,6.11L524.64,291l14.6,6.1a120.67,120.67,0,0,1-30.66,38.37c-6.43-1.87-28-2.74-29.2-7.49-1.11-4.45,6.49-8.35,3.9-12.18-1.77-2.55-4.91-3.91-8.88-4.64l-32.15-.09c-2.85-9.25-4.93-18.51-4.29-28.78.31-5.38,10.7-9.21,16-9.89,5.13-.68,9.15.93,14.72,1.73-.19-6.06-6-9.89-11.5-12.24l.43-5.75-8.29-3.09-1,4.39c-1.36-2.84-7.85-5.26-11.62-5.69-8.84-1.11-18.18,2.53-26.71,0-5.07-1.55-5.87-3.28-10.51-8.59-4.33,6.86-2.84,15.27,2.53,21.27,4.58,5.07,8.59,7.23,14.65,9.28A224.09,224.09,0,0,0,408.84,311l-10.91,0c-8.36.8-15.43,2.31-18.47,6.9-2.47,3.83,4.76,7.73,3.71,12.12s-10.61,5.61-16.47,7.11a120.6,120.6,0,0,1-33.24-41.22l15.71-4.29,8.72.87,21.38-6.59a37,37,0,0,1-1.16-9.68,58.55,58.55,0,1,1,117.11,0Zm-108.7-37.66-48.6-43.41a123.38,123.38,0,0,1,15.21-27.45l.49.68,44.21,58.56A63,63,0,0,0,386.51,238.53Zm-79.31,34c3.22,8.35,8.1,16.2,11,24.86.74,2.23.93,5.69-2.6,2.66-7.48-6.37-12-17.25-15.89-26.22-4.33-10-8.9-19.85-10.82-30.61a16.18,16.18,0,0,1,2.91-12.12c4,3.34,5.63,7.17,6.8,11.44C301.39,252.57,303.49,262.83,307.2,272.54Zm-18.07,98.93c1.42-1.05,4-.68,5.94-.68,5,.12,8.78.68,13.36.68,4-.06,8,.31,12,.12,1.05,0,2.41.37.37,1-3.65,1.11-8.78.93-13,1.11a96.28,96.28,0,0,1-14.72-.31A5.38,5.38,0,0,1,289.12,371.47Zm9.71,6.37c5-.5,8.84-.25,13.36-.8,3.9-.43,8-.5,12-1.05,1-.12,2.35.06.43.93-3.52,1.48-8.66,1.85-12.92,2.47A109.75,109.75,0,0,1,297,380.62a5.54,5.54,0,0,1-4.08-1.55C294.32,377.9,296.91,378,298.83,377.84Zm1.79,6c4.95-.74,8.84-.74,13.29-1.48,3.9-.62,8-.93,11.93-1.67,1-.19,2.41-.06.49.87-3.46,1.67-8.53,2.35-12.8,3.15a93.19,93.19,0,0,1-14.53,2,5.65,5.65,0,0,1-4.14-1.24C296.17,384.15,298.71,384.08,300.63,383.84Zm5.38,5.32c4.51-.87,8-1.05,12.12-2,3.52-.74,7.23-1.24,10.82-2.1.93-.25,2.23-.18.49.74-3.09,1.73-7.67,2.6-11.5,3.52a96.42,96.42,0,0,1-13.29,2.54,5.22,5.22,0,0,1-3.83-1C301.92,389.65,304.27,389.52,306,389.15Zm3.09,5.63c4.27-1.11,7.67-1.48,11.56-2.54,3.34-.93,6.93-1.55,10.33-2.6.87-.25,2.1-.25.49.74-2.84,1.79-7.3,2.84-10.94,4a89.13,89.13,0,0,1-12.61,3.09,4.76,4.76,0,0,1-3.77-.74C305.14,395.46,307.43,395.15,309.1,394.78Zm3.34,5.32c4-1.24,7.17-1.73,10.76-2.91,3.09-1.05,6.37-1.79,9.52-2.91.8-.31,2-.37.5.62-2.6,1.85-6.68,3-10,4.27a86.45,86.45,0,0,1-11.69,3.52,4.64,4.64,0,0,1-3.59-.56C308.85,401,311,400.59,312.44,400.1Zm3.46,4.76c3.77-1.36,6.8-2,10.2-3.34,3-1.17,6.12-2,9.09-3.34.8-.31,1.92-.43.56.62-2.41,1.92-6.31,3.28-9.52,4.64a92.75,92.75,0,0,1-11.13,4,4.65,4.65,0,0,1-3.46-.31C312.44,405.91,314.41,405.41,315.9,404.86Zm49.47,46.44c-.12-1.05.74-2.35,1.3-3.4,1.42-2.72,2.84-4.64,4.08-7.11,1.05-2.1,2.41-4.27,3.4-6.49.31-.56.87-1.17.62.06-.37,2.35-1.92,5.07-3,7.48a60,60,0,0,1-4.2,7.92A3.28,3.28,0,0,1,365.36,451.29Zm5-1.85c1.3-2.78,2.54-4.76,3.65-7.3,1-2.16,2.16-4.39,3.09-6.68.25-.56.8-1.24.62.06-.25,2.35-1.61,5.13-2.6,7.61a61.23,61.23,0,0,1-3.83,8.1,3.62,3.62,0,0,1-2,1.73C369,451.85,369.88,450.49,370.37,449.44Zm3.65,2.47c1.17-2.84,2.35-4.88,3.34-7.48.8-2.29,1.92-4.51,2.72-6.86.19-.56.74-1.24.62,0-.19,2.35-1.36,5.26-2.23,7.73a67.35,67.35,0,0,1-3.4,8.35,3.36,3.36,0,0,1-1.92,1.79C372.85,454.39,373.59,453,374,451.91Zm31.1-20.84c-.06-2.54.25-4.64.68-4.7s.74,2,.8,4.58-.25,4.64-.68,4.7S405.12,433.67,405.12,431.08Zm3.71,9c.37-.06.8,2,.8,4.51s-.25,4.7-.68,4.7-.8-2-.8-4.51S408.4,440.1,408.83,440Zm.68,13.67c.25,0,.56,1.79.56,4.08s-.19,4.21-.5,4.27S409,460.26,409,458,409.2,453.77,409.51,453.71Zm-.31-20.47c-.06-2.54.5-4.64,1.3-4.7s1.42,2,1.55,4.58-.49,4.64-1.3,4.7S409.33,435.84,409.2,433.24ZM412,447.59c-.06-2.54.37-4.7.93-4.7s1.17,2,1.24,4.51-.37,4.64-1,4.7S412.11,450.12,412,447.59Zm.87,11.5c0,2.29-.19,4.2-.49,4.27s-.56-1.79-.62-4.08.19-4.2.49-4.27S412.85,456.8,412.91,459.09Zm.62-23.43c-.06-2.54.68-4.64,1.67-4.7s1.92,2,2,4.51-.62,4.7-1.67,4.7S413.65,438.19,413.53,435.65Zm2,14.28c-.12-2.54.62-4.64,1.67-4.7s1.92,2,2,4.51-.62,4.7-1.61,4.76S415.63,452.47,415.51,449.93Zm.87,11.75c0,2.29-.19,4.2-.49,4.27s-.56-1.79-.62-4.08.19-4.2.49-4.27S416.31,459.39,416.38,461.68Zm2.23-3.21c.31,0,.56,1.79.56,4.08s-.19,4.21-.43,4.27-.62-1.79-.62-4.08S418.29,458.53,418.6,458.47Zm4.82-48.17c-1.61.06-3.09-3.4-3.28-7.79s1.05-8,2.66-8,3.15,3.4,3.34,7.79S425.09,410.18,423.42,410.3Zm2.6-18.43c-2-.06-3.65-3.59-3.59-7.85s1.85-7.67,3.9-7.61,3.71,3.52,3.59,7.79S428.12,391.87,426,391.87Zm1,68.82c.31-.06.62,1.73.62,4s-.19,4.2-.5,4.27-.56-1.79-.56-4.08S426.76,460.69,427,460.69Zm6.31.87c.31-.06.56,1.73.62,4s-.19,4.2-.5,4.27-.56-1.79-.62-4.08S433,461.56,433.32,461.56Zm-1.67-14.28c-1.85.06-3.52-2.84-3.71-6.55s1.17-6.8,3-6.86,3.46,2.91,3.71,6.62S433.5,447.21,431.65,447.28Zm.87-17.75c-1.86.06-3.53-2.91-3.71-6.62s1.18-6.74,3-6.8,3.46,2.84,3.71,6.55S434.37,429.47,432.51,429.53Zm.25-17.75c-1.86.12-3.52-3.77-3.71-8.72s1.11-8.9,3-9,3.52,3.83,3.71,8.72S434.55,411.72,432.76,411.78Zm1.67-20.22c-2.1.06-3.83-3.4-3.89-7.67s1.48-7.73,3.59-7.79,3.77,3.4,3.89,7.67S436.47,391.5,434.43,391.56Zm5.32,69.56c.31-.06.56,1.73.62,4s-.19,4.2-.5,4.27-.56-1.79-.62-4.08S439.44,461.13,439.75,461.13Zm-.68-17.07c-1.24.06-2.41-2.54-2.54-5.81s.8-6.06,2-6.12,2.54,2.6,2.66,5.87S440.43,444,439.07,444.06Zm-.93-21.33c-.19-3.71,1.11-6.8,2.91-6.86s3.52,2.91,3.71,6.62-1.11,6.74-3,6.8S438.26,426.44,438.14,422.73Zm7.48,37c.31,0,.56,1.79.56,4.08s-.19,4.21-.43,4.27-.62-1.79-.62-4.08S445.31,459.83,445.62,459.77Zm-1.18-22.38c-.06-2.54.68-4.64,1.67-4.7s1.92,2,2,4.51-.62,4.7-1.67,4.7S444.57,439.92,444.45,437.38Zm5-11.32c-1.48.06-2.78-2.6-2.91-5.87s.87-6.06,2.35-6.12,2.78,2.6,3,5.87S450.94,426,449.46,426.07Zm1.73,8.47c-.06-2.54.49-4.64,1.24-4.7s1.48,2,1.61,4.58-.5,4.64-1.3,4.7S451.25,437.14,451.19,434.54Zm1.11,27.83c0,2.29-.19,4.14-.5,4.2s-.56-1.79-.62-4.08.19-4.14.49-4.2S452.24,460.08,452.3,462.36Zm1.3-18.86c.43-.06.8,2,.87,4.51s-.31,4.7-.68,4.76-.8-2-.87-4.58S453.16,443.57,453.6,443.5Zm.43,13.66c.31,0,.62,1.79.62,4.08s-.18,4.2-.49,4.27-.56-1.79-.56-4.08S453.78,457.23,454,457.17Zm0-40c-.12-3.15.62-5.75,1.73-5.81s2,2.47,2.17,5.63-.68,5.81-1.79,5.87S454.09,420.38,454,417.16Zm2.6,37.84c.31,0,.62,1.79.62,4.08s-.19,4.2-.5,4.27-.56-1.79-.56-4.08S456.38,455.07,456.63,455Zm.19-23.25c-.06-2.54.25-4.64.68-4.7s.8,2,.87,4.51-.31,4.64-.68,4.7S456.88,434.29,456.81,431.76Zm.5-26.46c-1.18.06-2.23-3-2.35-6.93s.74-7,1.92-7.17,2.23,3,2.35,6.92S458.48,405.23,457.31,405.29ZM487,460a55.92,55.92,0,0,1-2-8.72c-.5-2.6-1.24-5.69-1-8,.06-1.3.49-.56.56.06.43,2.41,1.17,4.82,1.67,7.17.56,2.72,1.42,4.88,2.1,7.92.25,1.11.8,2.6.31,3.65A3.36,3.36,0,0,1,487,460Zm.8-18.86c0-1.3.43-.56.62.06.5,2.41,1.36,4.76,2,7,.68,2.72,1.67,4.82,2.54,7.79.31,1.11.93,2.6.49,3.65a3.62,3.62,0,0,1-1.73-2,53.29,53.29,0,0,1-2.47-8.6C488.66,446.47,487.73,443.5,487.85,441.15Zm4.95,5.94c-.68-2.54-1.73-5.5-1.79-7.85,0-1.3.43-.56.62.06.68,2.35,1.67,4.64,2.35,6.93.87,2.66,1.92,4.76,2.91,7.67.37,1.11,1.11,2.54.74,3.59a3.52,3.52,0,0,1-1.85-1.92A72,72,0,0,1,492.8,447.09Zm3.59-1.79c-.87-2.47-2-5.38-2.23-7.73-.06-1.24.43-.56.62,0,.8,2.35,1.92,4.58,2.78,6.86.93,2.6,2.1,4.64,3.28,7.48.43,1.05,1.17,2.47.93,3.52a3.29,3.29,0,0,1-2-1.79A67,67,0,0,1,496.39,445.3Zm3.4-2.16c-1-2.47-2.35-5.25-2.66-7.61-.12-1.3.37-.62.62-.06.93,2.29,2.16,4.51,3.09,6.68,1.11,2.54,2.41,4.51,3.71,7.3.5,1.05,1.3,2.41,1.05,3.52a3.34,3.34,0,0,1-2-1.73A61.16,61.16,0,0,1,499.79,443.13Zm3.34-1.3c-1.11-2.41-2.6-5.13-3-7.48-.19-1.24.37-.62.62-.06,1.05,2.23,2.35,4.39,3.46,6.49,1.24,2.47,2.6,4.39,4,7.11.56,1.05,1.48,2.35,1.3,3.4a3,3,0,0,1-2.1-1.55A60.14,60.14,0,0,1,503.13,441.83Zm2.72-2.16c-1.36-2.47-3.09-5.32-3.65-7.79-.31-1.3.31-.68.68-.06,1.17,2.29,2.72,4.45,4,6.68,1.42,2.6,3,4.58,4.7,7.36.62,1.05,1.67,2.41,1.55,3.59a3.78,3.78,0,0,1-2.35-1.55A67.59,67.59,0,0,1,505.85,439.67Zm3.34-2c-1.42-2.41-3.34-5.13-4-7.54-.37-1.36.31-.74.62-.12,1.36,2.23,3,4.33,4.39,6.49,1.61,2.47,3.28,4.33,5.13,7,.68,1.05,1.79,2.35,1.73,3.52a3.64,3.64,0,0,1-2.41-1.48A68.73,68.73,0,0,1,509.18,437.69Zm3.4-1.48c-1.61-2.35-3.65-5-4.45-7.36-.43-1.3.25-.74.68-.19,1.42,2.16,3.21,4.2,4.7,6.31,1.73,2.41,3.46,4.14,5.44,6.8.74,1,1.92,2.16,1.92,3.34a3.4,3.4,0,0,1-2.47-1.3A60.06,60.06,0,0,1,512.59,436.21ZM549,482.46c5.5-7.54,13.91-12.3,23.06-17.87-3.4,9.77-7.79,21.76-15.46,27.27C549.42,497.05,542.8,490.87,549,482.46Zm-3.36-14.27c-8,.63-10.79-7.25-2.33-10.91,7.51-3.22,16.27-2.9,26-2.9C562.53,460.3,554,467.49,545.62,468.19Zm-3-41.19a84.24,84.24,0,0,1-9.15-6.37c-2.53-2-5.75-4.14-7.48-6.49-1-1.3,0-.93.62-.43,2.41,1.92,5.07,3.46,7.48,5.26,2.72,2,5.32,3.34,8.41,5.5,1.24.87,2.91,1.79,3.34,3.09A4.16,4.16,0,0,1,542.64,427Zm2.84-4A70.06,70.06,0,0,1,536,417.1c-2.72-1.86-6-3.9-7.85-6.12-1.05-1.17,0-.87.62-.43,2.47,1.73,5.19,3.21,7.67,4.82,2.91,1.92,5.56,3.09,8.78,5.13,1.24.74,3,1.61,3.46,2.84A4,4,0,0,1,545.48,423Zm-6.25-8.47c-2.84-1.79-6.37-3.71-8.41-5.87-1.17-1.24-.06-.93.62-.5,2.66,1.67,5.57,3,8.22,4.58,3,1.79,5.87,2.91,9.27,4.76,1.36.74,3.22,1.55,3.77,2.84a4.28,4.28,0,0,1-3.34-.25A86.16,86.16,0,0,1,539.24,414.5Zm-9.65-20.77c-2.54-.5-6.31-1.86-6.31-3.15s5.13-2,7.42-2.29,5.13,1,4.33,3.52S532.12,394.22,529.59,393.73Zm2.35-8.22c-2.66-.5-6.62-2-6.55-3.28s5.32-2.23,7.73-2.47,5.44,1.05,4.58,3.77S534.66,386.06,531.94,385.51Zm.62-11c0-1.24,4.95-2,7.11-2.23s5,.93,4.2,3.4-2.78,2.35-5.26,1.86S532.5,375.74,532.56,374.5Zm9.52-6.62c-2.41-.5-6.06-1.86-6.06-3s4.95-2,7.17-2.23,4.95.93,4.2,3.4S544.55,368.38,542.08,367.88Zm3-7.85c-2.6-.12-6.62-.93-6.74-2.23s4.82-2.84,7-3.4,5.32.19,4.95,2.91S547.77,360.22,545.11,360Zm-1.86-8.53c-.8-1.3,3.77-5.63,5.94-7.36s5.87-2.6,6.8.56-1.3,4.45-4.2,5.69S544.06,352.8,543.25,351.5Zm12.18,15.15c4.27-.12,8.59-.87,12.8-1.11,4.88-.31,8.9-1.24,14.22-1.67,2-.19,4.76-.74,6.43.19a6,6,0,0,1-4,2.23,107.56,107.56,0,0,1-15.71,1.42c-4.64.19-10.08.74-14.1-.06C552.9,367.14,554.32,366.71,555.44,366.65Zm32.4-7c-4.7,1.36-9.83,1.79-15,2.29-4.58.5-10.63.93-14.78.12-2.23-.43-.87-1.11.25-1.24,4.27-.37,8.66-.68,12.8-1.24,4.82-.62,9.4-1.79,14.1-2.78a13.74,13.74,0,0,1,6.37-.06A5.43,5.43,0,0,1,587.84,359.6Zm1.67-6.31c-4.64,1.48-9.77,2-14.9,2.66-4.58.62-10.64,1.24-14.78.5-2.23-.37-.87-1.05.19-1.17,4.27-.56,8.66-.93,12.8-1.61,4.82-.74,9.34-2,14-3.15a13.81,13.81,0,0,1,6.43-.25A5.78,5.78,0,0,1,589.5,353.29Zm1.42-6.86c-4.58,1.92-9.65,2.91-14.72,4-4.51,1-10.51,2-14.65,1.48-2.29-.25-1-1.11.06-1.36,4.27-.87,8.59-1.55,12.67-2.6,4.76-1.11,9.15-2.91,13.73-4.45a13.18,13.18,0,0,1,6.37-.68A6.12,6.12,0,0,1,590.93,346.43Zm-30.86-38.21c4-7.17,9.52-13.29,13.73-20.09,4.82-7.91,8.29-16.63,12.37-25,1.73-3.59,3.77-6.68,7.85-9a14.32,14.32,0,0,1,.56,11.13c-3.4,9.15-9,17.06-14.41,25.17-4.88,7.3-10.63,16.08-18.18,20.53C558.34,313.1,559.08,310.07,560.07,308.21Zm37.78-33.08a11.7,11.7,0,0,1-1,9.21c-3.9,7-9.52,12.8-15,18.73-4.88,5.32-11.62,12-17.5,14.41-3.15,1.3-2.35-1.24-1.18-2.47,4.58-4.95,9.46-9.65,13.79-14.72,4.95-5.87,9-12.49,13.36-18.8A15.49,15.49,0,0,1,597.85,275.14Zm-35.43,62c4.64-1.73,9.34-3.34,13.79-5.32,5.07-2.35,9.83-5.5,14.72-8.35a11.27,11.27,0,0,1,7-1.79,8.58,8.58,0,0,1-3.52,5.75c-4.82,3.46-10.33,5.5-15.83,7.73-4.88,1.92-11.44,4.27-16.08,4C559.95,339.07,561.25,337.65,562.42,337.15Zm33.82-23.25c-4.51,4.7-10.08,8.1-15.52,11.69-4.95,3.22-11.56,7.11-16.63,7.85-2.78.37-1.61-1.48-.43-2.23,4.58-3,9.34-5.69,13.73-8.78,5.07-3.59,9.52-8,14.22-12.12a12.86,12.86,0,0,1,7.23-3.46A9.72,9.72,0,0,1,596.24,313.9ZM598,299.68c-4.45,5.87-10.26,10.39-16,15.09-5.13,4.27-12.06,9.46-17.68,10.94-3.09.74-2-1.42-.8-2.47,4.82-3.83,9.83-7.54,14.41-11.56,5.26-4.7,9.71-10.26,14.47-15.46a14.58,14.58,0,0,1,7.67-4.76A10.91,10.91,0,0,1,598,299.68Zm11.11-75.87c-2.1-10.45,1.24-21,4.45-32.89,6.18,10.45,13.6,23.43,11.81,34C623.68,234.94,611.56,235.44,609.15,223.81Zm23,34.07c-3.4,7.36-11.44,5.38-10.26-4.08,1-8.47,5.57-16,10.39-24.49C633.88,238.59,635.73,250.09,632.15,257.88Zm8.55-.8c-3.34-7.54-2.84-11.75-4.76-21.33,8.78,5.19,12.49,10.51,15.64,17.93C648.43,257.51,645.53,258.81,640.7,257.08Zm2.47-22c-7.79-7.11-11.93-17.13-17.07-28.07,10.51,5,23.37,11.5,28.57,20.71C659.62,236.49,651.83,243.11,643.18,235.13Zm28.07,8.22c-4,8.53-13.29,6.25-11.93-4.76,1.17-9.83,6.49-18.55,12.06-28.5C673.29,220.91,675.45,234.26,671.25,243.35Zm-17.19-72.84c5.63,12.61,12.37,28.26,10,40.69-2.23,11.62-14.28,11.69-16.08-2.17C646.39,196.67,650.29,184.37,654.06,170.52Zm-22.39-26.44c6.64,10.4,14.7,23.37,14.27,34.63-.43,10.64-11.07,12.24-14.52.25C628.41,168.25,630.19,156.81,631.67,144.08Zm8,53c5.75,8.41,1.17,15-8.29,7.67-8.47-6.55-17-17.19-23.06-27.89C619.37,181.09,633.65,188.14,639.71,197.1ZM625,141.47c2.15,10-7.44,14.15-13.53,3.75-5.47-9.35-6.52-20.42-8.18-32.73C612,120.61,622.65,130.82,625,141.47Zm-34.45,2.34c-10.09-2.71-18.45-9.66-28-17,11.56-.37,25.9-.61,34.75,5.17C605.67,137.41,601.86,146.82,590.54,143.8Zm10.16-28.22c3.2,10.52-6.46,16.55-14.21,5.84-6.89-9.53-10-20.79-12.73-33.77C585,95,597.32,104.39,600.7,115.58ZM572.78,96.21c5.84,9.35-2,17.65-12.18,9.35-9.17-7.44-12.86-17.22-24.05-27.56C551.25,80.21,566.56,86.24,572.78,96.21ZM543.62,92c9.47,8,4.61,18.08-9.29,15.07-12.67-2.77-21.28-13.23-36.17-21C514.22,82.92,533.59,83.54,543.62,92Zm-38.75,26.51c-7.26-8.49-11.32-19-15.25-31.19,10.83,5.91,23,13.59,27.31,24C521,121.12,513,127.95,504.87,118.47Zm-11,23.47A110.91,110.91,0,0,1,512.28,158l-39.76,66.66a63.44,63.44,0,0,0-15.4-7.85c-1.24-.43-2.47-.8-3.77-1.18l19.91-84.83A101.93,101.93,0,0,1,493.85,141.95Zm-77.66-16.08a97.86,97.86,0,0,1,40.93,0c1.24.31,2.47.56,3.71.87l-13.54,87.55a61.45,61.45,0,0,0-21.27,0l-13.54-87.55C413.72,126.43,415,126.18,416.19,125.87Zm-16.14,4.95L420,215.65c-1.3.37-2.54.74-3.77,1.18a63.44,63.44,0,0,0-15.4,7.85L361,158a110.89,110.89,0,0,1,18.43-16.08A101.94,101.94,0,0,1,400.05,130.82ZM380.12,130c-.49,1.48-1.73,2.47-3.77,3a24.55,24.55,0,0,0-12.86,6.74c-1.86-.06-4.08-.93-5.94-1a17.93,17.93,0,0,0,1.62-9.22c-.4-.07-.57-.17-.45-.3s.35-.07.45.3c2.73.48,16-.48,16-1.66C377.59,127.73,379.25,128.41,380.12,130Zm-21-51.6a7.56,7.56,0,0,1,1.17,5.94,29.54,29.54,0,0,1,11.5-2.41,21.1,21.1,0,0,1-1.61,8.35c11-4.27,21-5.13,26.16-3-3,8-8.16,14.22-16.45,18,3.28-.06,4.76.37,4.39,1.36-2.84,10-6.8,9.65-10.7,9.89,2.54,1.42,3.83,2.78,3.77,4.14-8.72,8.66-17.13,8.16-23.56,3.22.31-.87,2.23-3.71,2.54-4.58a35.14,35.14,0,0,0,8.72-2.35l-8.53.56c1.11-3.21.68-7-.37-10.26,4.2-2.6,8.84-4.95,13-7.73-4.58,1.92-9.21,3.83-13.85,5.75a33.33,33.33,0,0,0-4.76-4.39c2.29-1.48,5.13-3.21,7.36-4.7l-9.09,3.34c-3.83-2.66-8.16-2.41-12.49-2.35A42.4,42.4,0,0,1,359.12,78.35Zm-55.79,36c1.11-6.12,3.22-8,6.12-9.71s5.69.8,8.53,1.17c2.41-1.73,2.35-4.82,7.3-5.32s6.68.31,8.9,3c4.76-6.25,15.27-4,18.61,2s3.83,12.43-2.78,16.82c2.91,2.78,5.19,4.88,5.94,8.35,1.48,6.74-3,9.89-10.26,9.89,0,13.23-7,9.89-12.68,9.09a16.73,16.73,0,0,0,3.34-7.54c.43-3.52-1.55-6.74-4.51-9.89,5-4.2,6.86-8.72,5.5-13.48a12.36,12.36,0,0,0-12.06,1.24,14.85,14.85,0,0,0-7.73-9.71c-5.94,5.5-7.36,12.12-4.33,19.79A13.78,13.78,0,0,1,303.32,114.31Zm-4.2,21.58a83.23,83.23,0,0,0,3.09-10.2c1.3,1.92,2.84,5.19,4.2,7.11a21.57,21.57,0,0,1,11.56,0q-.74,2.88-4.64,5a4.47,4.47,0,0,1,3.83,1.73c-.25,1.11-.31,1.73-.56,2.91-2.66-.12-5,2.29-7.67,3.22C308.46,141.89,303.63,137.62,299.12,135.89Zm-7.91,17.87A35,35,0,0,1,303,140.28c2.47,2.91,4.51,5.87,3.83,9.27,8.47-6.86,17.75-8.35,25.41-9.65-.06,5.19-.49,8.1-2.47,11.93a39.4,39.4,0,0,0,12.12.56c-.37.76-.78,1.67-1.2,2.57a174.08,174.08,0,0,0-49,56.1c-7.49-.35-13.19,1-17.19,3.16.06-2-.25-3.15-.19-5.19a30,30,0,0,0,13.66-2.29c2.29-1.05,1.48-5.69,3.83-6.37,5.44-1.48,8.72-4.88,11-9,1.67-3.15.93-7.3-.19-10.63-.74-2.29-3.34-3.46-5-5.19l15.21-.74c-5.13-.31-10.26-.49-15.4-.8,1.47-1.4,2.84-2.66,4.19-3.77l-5.55,3c-.25-.8-.49-1.55-.8-2.35,2.6-7,6.43-11.93,11.56-14.78-5.13,1.24-9.21,5.87-12.3,13.85-.31.19-.62.37-1,.56C289.66,165.94,288.92,160.38,291.21,153.76Zm-26.77,3.09c3.65-2.47,9.34-2.72,13.85-.56,7.48,3.46,13,12.49,14.47,19.6,5.63,1.85,7.85,6.74,8.84,12.18-1.92,6.62-7,8.47-12.49,10.94-1.18,1.61-1.11,4.88-2.91,6-4.45,2.6-9.77,1.3-12.68-.8,6.49-.93,12.61-4.14,15.58-9.21-4.45-4.21-9.27-4.7-13.66-4.27-.74-4.27-2.6-9.15-6.37-11.93-4.88,1.73-6.43,7.3-7.73,12.12-2.66-1.48-5.69-3-9.4-1.36a8.71,8.71,0,0,0-.19-6.12c-2.29-1-4.51-.62-6.74,0-1.79-5.19-1.3-10.64,3-14.84,3.09-3,7.11-2.66,10.64-1.92C260.72,163.78,261.53,158.89,264.43,156.85Zm-32-.19c3.77.06,7.54-.19,10.82,4a19.73,19.73,0,0,1,5-15.4c5,3.15,8.47,7,10.39,11.75-1.24,1.61-2.29,4.58-1.92,6.18-2.16-.87-3.28-1.67-5.44-.8-1.42.68-2.72,3.09-4.2,3.71-2.16.8-4.51,2.54-5,4.39-1.36,5.07-1.67,9.52-2.29,14.65C232.46,179.48,230.61,169.53,232.46,156.66Zm-20,49.57c-.5-5.33-1.12-11.66,0-17,2.23-.37,3.6,1.05,5.21,2.36,2.91-10.92,6.82-17.43,11.78-19.54,1.92,6.95,2.61,14.14,12,18.92,1.92-4,4.47-4.84,7.38-4.22a22.85,22.85,0,0,1,0,10,17.19,17.19,0,0,1,2.3,6.76c3.35-.19,6.7-.81,9.49.56a13.91,13.91,0,0,1,.19,6.39c1.24,1,3,1.74,2.11,3.85-5.64,6.33-11.35,12.65-17,18.92-1.05-2.17-1.86-2.11-3.54-2.61.19-3.91-1.74-9.49-4-11.66-2.54-2.48-6.88-1.18-10-2.73-3.54-1.67-5.27-5.4-9.12-6.39-3-.74-7.44.56-9.61,2.36a9.67,9.67,0,0,1-2.17-6C209.14,205.55,210.81,206.36,212.49,206.23Zm-7.69,22.64c-.43-6.45,1.55-12.65,9.24-14.51,7.44-1.8,10.11,2.54,11.23,6,3.54.62,7.88-.43,10.61,1.92,4.78,4.16,2.17,8.5,3.29,12.71,2.23-.06,4.34.06,5.58,1.55,1,1.18-.37,3-.56,4.47,2.92.68,5.33,2.11,5.77,4.65s-2.23,4.28-3.66,6.51c.68-1.8.5-3.91.5-6a34,34,0,0,0-18.23,1.55c.12-3.78-3.47-7.69-8.5-10.42-3.16,1-4,4.4-4.09,7.5-5-2.54-10.48-4.59-15.44-8.68C196.86,233.15,197.29,228.06,204.8,228.87Zm40.53,18.69a24.93,24.93,0,0,1-1.92,7.61l-25.85-9.77c.25-2,.74-5,2.66-6,4.45,2.23,6.18,6.62,7.91,9.52C233.27,247.62,240,246.26,245.33,247.56Zm-44.41-28.73c-1.43,2.54-2.48,5.15-.81,7.69-3.1-.87-5.15,1.05-6.76,4.28C190.44,222.67,193,218.7,200.92,218.82Zm-8.43,47.88c-4-4.2-6.49-9.77-4.27-16.08,1.86,5.19,5.69,6.55,10.2,9.15,14.84,8.53,30.42,11.87,44.89,16.88,9.32,3.21,18,8,26.28,13.07q-.19,4.15-.2,8.35c0,.59,0,1.18,0,1.78-8.16-5-17.39-8.91-28.77-13.05-11-4-24.36-6.12-35.37-11.19A34.7,34.7,0,0,1,192.49,266.7Zm17.23,45.1c-2.6.06-3.9.8-3.77,2.29-2.91-2.16-5.81-4.27-8.66-6.37a10.88,10.88,0,0,1-1.05-7.91c3.83,2.54,5.63,5.13,10.45,6.62C207.36,307.91,209,310.32,209.71,311.8Zm-18.3,28.13c-.56-2.1-2.16-3.77-2.29-6.31,4-.68,7.73-.62,11.69-1.3-6.62-5.87-6.86-13.42-6.06-21.33,5.07-.62,8.35,3,11.44,7.11.8-2.72,3-4.39,6.55-5.07,6.18,5.13,9.52,9.83,10.94,14.22q2.32-2.78,9.65-1.48a11.46,11.46,0,0,1,2,9.15c-7.3,2.47-8.53,7.85-9.15,13.11-.74-3.09-1.92-6.43-6.06-8.9-3.65.68-5.63,1.73-5.87,3.09-1.24-2.53-3.9-4.39-7.85-5.63-2.16.87-3.21,2-3.34,3.59C199.2,338.57,195.3,338.82,191.41,339.93Zm.49,19c.62-2,2.91-3.71,6.86-5.07-2.35-3.71-4.39-7.54-4-11.93,3.22-1.05,6.43-.25,9.65.74.93-.74,1.86-1.55,2.78-2.29,4.7,2.6,5.75,5.26,6.37,7.85a7.71,7.71,0,0,1,5.32-5.81c2.72,2.47,4.08,4.88,4.08,7.36-3.09,1.55-4.33,4.27-5.32,7.11a16.88,16.88,0,0,0,3.77,9.65c-.74,2.72-.19,5.81,1.79,9.15C210.95,375.92,200.75,369.68,191.9,359Zm27.73,43c-7-3-14.9-8.41-17.25-14.41,5.56,4.33,10.33,5.13,16.57,6.37,21,4.2,39.39,4.51,57.26,6.49a246,246,0,0,1,28.44,4.8q3.6,4.83,7.5,9.38a305.37,305.37,0,0,0-30.94-5.28c-13.79-1.73-28.13-2.47-42.85-3.34C230.94,405.64,227.42,405.39,219.63,402Zm25.88,60.74c1.67-1.11,3.34-2.16,4.95-3.28a82.86,82.86,0,0,1-11.56-9.65c2-1.24,4-2.41,6.06-3.59-5.87-4.88-9.15-9.77-9.89-14.59,9,2,22,3.22,36.91,3.83-3.52,2.66-4.76,5.87-6.06,8.84-4,1.92-9.89,2.91-11.32,7.42s3.15,9.34,4.7,14C253.86,465.58,248.73,465.15,245.51,462.73Zm11.27,12.68c.56-1.3,1.11-2.53,1.67-3.83.62,1.92,4.33,3.83,9.34,5.75.74,2.84,4.08,5.07,7.73,7.17C268.16,482.89,261.18,480.73,256.79,475.41Zm102.56,63.13c-.56-1.42-1.11-2.78-1.67-4.14-5.5,1.36-11,3-16.51,3.59-.68-2.6.62-5.13,2.16-7.73l10.2-8c-3.83,2.1-7.73,4.21-11.56,6.31-8.66.43-17.87-.31-25.1-3.59,2.23-3,5.26-5.75,6.92-8.53a125.77,125.77,0,0,1-35.86-11.32,11.23,11.23,0,0,1,6.93-1.61c1.73-1.05,3.46-2,5.26-3-9.15-.56-18-2.41-25.66-8.84,2.23-1.92,4.39-3.83,6.62-5.75,6.06-3.22,11.87-6.62,15.71-11.32,1,1.3,2,2.54,3,3.83a16.61,16.61,0,0,0-7.73,4.45,68.28,68.28,0,0,0,24,10.14c3,6.06,7.54,11.13,15.15,13.79,3.21,2.47,2.91,7.36,8.84,7.17s14.47-5.5,21.76-8.29c1.36,9.27,2.72,18.55,4.14,27.89A20.73,20.73,0,0,1,359.34,538.54ZM454.55,553a17.33,17.33,0,0,0-34.13.19c-19.29-1.11-37-4.14-46.37-9.46,19.66-6.8,41.06-9.09,61.83-9.09,20.09,0,43.22,4.82,60.78,9.09C489.86,548.59,473.47,551.75,454.55,553ZM501.9,514.6c-20.84-4.33-43.76-8.05-66-8.05s-46.13,1.73-67.52,8.1l-2.12-17.88c22.26-6.8,46.21-9,69.71-9,22.75,0,48.38,4.69,68.29,9Zm-.4-52.24a41.13,41.13,0,0,1,2.2-4.08q5.94-2.73,11.63-5.93a9.27,9.27,0,0,1,3,.43c-1.42,6.62-3.59,13-7.42,17.19C505,476.58,497.29,471.88,501.5,462.36ZM512.63,538c-9.52-2.35-10.2-14.84.87-16.63,9.89-1.61,20,2.41,31.35,6.31C534.95,533.47,522.7,540.46,512.63,538Zm33-18.92c-9.65-.68-11.5-10.7-.74-13.48,9.65-2.54,20.09-.5,31.72,1.3C567.41,512.76,555.91,519.87,545.65,519.06Zm30.48-19.6c-9.65.74-13-8.84-2.78-13.23,9.15-4,19.72-3.59,31.53-3.59C596.66,489.88,586.39,498.66,576.13,499.46Zm41.49-52.37c1.3-1.05,4.27-4.7,6.24-5.56,3.9-.49,17.19-4.82,20.47-4.39-1.42,2.35-13.48,11.13-17.31,12.67C621.08,452.1,613.35,450.49,617.62,447.09Zm-17.07-4.64c5.94-.12,8.59-.18,13.91-.18-.12,4.39.37,5.56-3.46,9.83C605,458.65,597.52,449.32,600.55,442.45Zm1.36,20.84c8.41-5.38,18.92-6.74,30.55-8.66-6.93,8.47-15.58,18.8-25.6,21.27C597.46,478.25,592.58,469.35,601.91,463.29Zm-5-18.86c-1.42,6.62-6.12,21.33-10,25.54-6,6.62-13.73,1.92-9.46-7.6,1.36-2.91,7.67-15.64,9.65-18.18C591,442.82,593.63,443.32,596.9,444.43Zm-35.38,3.13c1.32-1,7.76-5.61,9.84-6.56a36.81,36.81,0,0,1,9.9.13c-1.39,2.33-6.18,7.7-10.16,9.21C565.05,452.73,557.17,451,561.52,447.56Zm-3.26-6.28c-.37,9.52-19.35,12.49-14,.19C550.22,441.34,552.94,441.28,558.26,441.28Zm-5.67-25a88.65,88.65,0,0,1-10.39-5c-3-1.67-6.55-3.34-8.72-5.44-1.17-1.17-.12-.93.56-.56,2.78,1.55,5.75,2.72,8.47,4.14,3.15,1.67,6.06,2.6,9.58,4.33,1.36.68,3.21,1.3,3.89,2.6A4.62,4.62,0,0,1,552.59,416.24Zm3.83-4.33a80.9,80.9,0,0,1-10.82-4.58c-3.15-1.48-6.92-3-9.21-5.07-1.24-1.11-.19-.93.56-.56,2.91,1.42,6,2.47,8.84,3.77,3.28,1.48,6.25,2.29,10,3.83,1.42.62,3.4,1.17,4.08,2.47A4.56,4.56,0,0,1,556.42,411.91Zm3.34-4.45a92.76,92.76,0,0,1-11.13-4c-3.21-1.36-7-2.72-9.52-4.64-1.36-1.05-.19-.93.56-.62,3,1.3,6.12,2.16,9.09,3.34,3.4,1.36,6.43,2,10.2,3.34,1.48.56,3.52,1.05,4.33,2.29A4.81,4.81,0,0,1,559.76,407.46Zm3.65-4.76a83.88,83.88,0,0,1-11.69-3.52c-3.4-1.24-7.48-2.41-10.08-4.27-1.42-1-.25-.93.56-.62,3.09,1.11,6.43,1.86,9.52,2.91,3.59,1.17,6.74,1.67,10.7,2.91,1.55.5,3.65.87,4.51,2A4.53,4.53,0,0,1,563.41,402.69Zm3.59-5.26a87.89,87.89,0,0,1-12.68-3.09c-3.65-1.11-8-2.16-10.94-4-1.61-1-.37-1,.5-.74,3.4,1.05,7,1.67,10.39,2.6,3.83,1.05,7.23,1.42,11.56,2.54,1.67.37,3.9.68,4.95,1.92A4.86,4.86,0,0,1,567,397.44Zm3.22-5.56A93.86,93.86,0,0,1,557,389.34c-3.9-.93-8.47-1.79-11.56-3.52-1.67-.93-.43-1,.49-.74,3.59.87,7.3,1.36,10.82,2.1,4.08.93,7.61,1.11,12.12,2,1.73.37,4.08.5,5.19,1.73A5.14,5.14,0,0,1,570.21,391.87Zm5.69-5.19a93,93,0,0,1-14.59-2c-4.27-.8-9.34-1.48-12.8-3.15-1.85-.93-.49-1.05.56-.87,3.9.74,8,1.05,11.87,1.67,4.51.74,8.35.74,13.29,1.48,1.92.25,4.51.31,5.81,1.61A5.74,5.74,0,0,1,575.9,386.68Zm1.92-6.06a109.75,109.75,0,0,1-14.65-1.24c-4.27-.62-9.34-1-12.92-2.47-1.92-.87-.56-1.05.49-.93,4,.56,8,.62,12,1.05,4.51.56,8.35.31,13.29.8,2,.12,4.51.06,5.87,1.24A5.54,5.54,0,0,1,577.82,380.62Zm-10.63-6.92c-4.33-.19-9.46,0-13.11-1.11-2-.62-.68-1,.37-1,4,.19,8.1-.18,12-.12,4.58,0,8.35-.56,13.36-.68,2,0,4.51-.37,6,.68a5.62,5.62,0,0,1-3.9,1.92A96.45,96.45,0,0,1,567.18,373.7Zm16.92,13.54c2.35-5.26,3-7.79,8.66-16.45,2.35,7.6,2.29,9.89,2.47,15.46C591.46,387.24,587.94,388.1,584.1,387.24ZM594,336.29c-4.82,2.6-10.33,4.14-15.83,5.81-4.95,1.48-11.44,3.21-16.08,3-2.54-.06-1.24-1.18-.06-1.49,4.58-1.36,9.34-2.6,13.73-4.08,5.13-1.73,9.89-4.08,14.72-6.18a14.12,14.12,0,0,1,7-1.36A6.4,6.4,0,0,1,594,336.29Zm11.39,37.87c-1.7,6.32-8.42,5.87-8.82-1.85-.35-6.92,2.31-13.58,5-21.05C604.09,358.47,607.15,367.39,605.35,374.16Zm.54-28.47c-1.11-2.54.06-6.86-.25-9.4a59.89,59.89,0,0,1,11.62-3.34,45.9,45.9,0,0,1-1,13.54C614.67,354.84,609.79,354.46,605.89,345.69ZM622.25,384c-3.77,1-9.09,1.67-12.92.74-.31-5.63,8.84-11.44,24.3-21.09C632.7,373.51,626.34,379.26,622.25,384ZM636.54,383c-.31-5.69.31-12.06,2.78-22.14,5.38,5.75,8,15.58,10.2,21.33C645.75,383.16,640.37,383.84,636.54,383Zm20.59-24.36c-1.24,8.78-10.2,9.28-12.06-1-1.67-9.21.74-18.55,3-28.94C652.8,337.83,658.43,349.27,657.13,358.61ZM647.9,327.9c-2-2.35-3.09-4-3.52-6.49,3.9-1.36,14.28-4.7,17.56-5,2,4.82,3.71,8.59,1.67,12.8C659.83,337.11,655.19,336.43,647.9,327.9Zm21.91,48.83c-7.17,5.25-13.79-.93-7.67-9.4,5.5-7.54,13.91-12.24,23.06-17.87C681.8,359.23,677.47,371.22,669.8,376.73Zm5.5-26.9c-6.62,6-13.85.56-8.72-8.47,4.64-8.1,12.43-13.73,20.9-20.28C685.2,331.09,682.23,343.46,675.31,349.83ZM352.61,74.92a12.44,12.44,0,0,0,.21,3.65,38,38,0,0,0-.25-6.06c-9.52-.12-15,2.14-21.69,7.43.31,1.18.62,2.47,1,3.51C339.81,77.33,347.16,74.24,352.61,74.92Z" transform="translate(-178.17 -36.9)"/>
</svg>
